<svg xmlns="http://www.w3.org/2000/svg" width="295" height="239.431" viewBox="0 0 295 239.431">
  <g id="Layer_8" data-name="Layer 8" transform="translate(-274.41 -175.135)">
    <path id="Path_85" data-name="Path 85" d="M914.614,330.93H847.678A4.684,4.684,0,0,0,843,335.614v41.109h76.289V335.614a4.686,4.686,0,0,0-4.675-4.684Z" transform="translate(-413.671 -112.901)" fill="#f5ebdd"/>
    <path id="Path_86" data-name="Path 86" d="M899.866,303.09a1.613,1.613,0,0,1,1.61,1.61v25.908a1.613,1.613,0,0,1-1.61,1.61H873.683a1.613,1.613,0,0,1-1.608-1.61V304.7a1.613,1.613,0,0,1,1.608-1.608h26.184m0-1.09H873.683a2.7,2.7,0,0,0-2.7,2.7v25.908a2.7,2.7,0,0,0,2.7,2.7h26.184a2.7,2.7,0,0,0,2.7-2.7V304.7A2.7,2.7,0,0,0,899.866,302Z" transform="translate(-434.027 -91.853)" fill="#ffb7d5"/>
    <path id="Path_87" data-name="Path 87" d="M1052.32,413.63a1.613,1.613,0,0,1,1.61,1.61v25.911a1.613,1.613,0,0,1-1.61,1.61h-26.05a1.613,1.613,0,0,1-1.61-1.61V415.24a1.613,1.613,0,0,1,1.61-1.61h26.05m0-1.09h-26.05a2.7,2.7,0,0,0-2.7,2.7v25.911a2.7,2.7,0,0,0,2.7,2.7h26.05a2.7,2.7,0,0,0,2.7-2.7V415.24A2.7,2.7,0,0,0,1052.32,412.54Z" transform="translate(-545.042 -172.275)" fill="#ffb7d5"/>
    <path id="Path_88" data-name="Path 88" d="M837.506,437.28a1.613,1.613,0,0,1,1.61,1.61v16.62a1.613,1.613,0,0,1-1.61,1.61H822.7a1.613,1.613,0,0,1-1.61-1.61V438.89a1.613,1.613,0,0,1,1.61-1.61h14.806m0-1.09H822.7a2.7,2.7,0,0,0-2.7,2.7v16.62a2.7,2.7,0,0,0,2.7,2.7h14.806a2.7,2.7,0,0,0,2.7-2.7V438.89a2.7,2.7,0,0,0-2.7-2.7Z" transform="translate(-396.937 -189.481)" fill="#ffb7d5"/>
    <rect id="Rectangle_7" data-name="Rectangle 7" width="23.682" height="16.577" transform="translate(440.901 213.82)" fill="#ffb7d5"/>
    <rect id="Rectangle_8" data-name="Rectangle 8" width="35.259" height="32.102" rx="16.051" transform="translate(449.848 224.806)" fill="#3ec1f3"/>
    <path id="Path_89" data-name="Path 89" d="M889.914,388.271a1.267,1.267,0,0,0-1.79,0l-.272.272-.272-.272a1.267,1.267,0,0,0-1.79,1.79l.272.272,1.79,1.79,1.787-1.79.272-.272A1.267,1.267,0,0,0,889.914,388.271Z" transform="translate(-444.559 -154.349)" fill="#ffb7d5"/>
    <rect id="Rectangle_9" data-name="Rectangle 9" width="13.945" height="13.419" rx="6.709" transform="translate(458.268 234.146)" fill="#4756df"/>
    <path id="Path_90" data-name="Path 90" d="M991.633,402.1l4.94,3.937a1.289,1.289,0,0,0,2.093-1.008v-7.877a1.289,1.289,0,0,0-2.093-1.008l-4.94,3.94a1.289,1.289,0,0,0,0,2.016Z" transform="translate(-521.453 -160.145)" fill="#4756df"/>
    <path id="Path_91" data-name="Path 91" d="M897.259,302h-74.42A8.836,8.836,0,0,0,814,310.825v51.792a8.836,8.836,0,0,0,8.836,8.836h74.42a8.836,8.836,0,0,0,8.836-8.836V310.825A8.836,8.836,0,0,0,897.259,302Zm.932,53.675H821.9V314.566a4.684,4.684,0,0,1,4.684-4.684h66.936a4.686,4.686,0,0,1,4.686,4.684Z" transform="translate(-392.572 -91.853)" fill="#4756df"/>
    <path id="Path_92" data-name="Path 92" d="M918.29,515.38H932.5a5.264,5.264,0,0,1,5.264,5.264v16.051a5.264,5.264,0,0,1-5.264,5.261H905.662a1.842,1.842,0,0,1-1.842-1.842h0a1.842,1.842,0,0,1,1.842-1.842h7.357V520.644a5.264,5.264,0,0,1,5.272-5.264Z" transform="translate(-457.919 -247.095)" fill="#4756df"/>
    <circle id="Ellipse_16" data-name="Ellipse 16" cx="3.289" cy="3.289" r="3.289" transform="translate(464.188 268.419)" fill="#3ec1f3"/>
    <circle id="Ellipse_17" data-name="Ellipse 17" cx="1.052" cy="1.052" r="1.052" transform="translate(466.425 213.03)" fill="#30242a"/>
    <line id="Line_25" data-name="Line 25" x1="24.794" transform="translate(455.05 280.126)" fill="none" stroke="#30242a" stroke-miterlimit="10" stroke-width="4"/>
    <path id="Path_93" data-name="Path 93" d="M689.079,612.92H817.635a5.449,5.449,0,0,1,5.449,5.449V730.8H683.63V618.369A5.449,5.449,0,0,1,689.079,612.92Z" transform="translate(-297.723 -318.059)" fill="#ffb7d5"/>
    <path id="Path_94" data-name="Path 94" d="M804.017,657.47V676.6H728.18V657.47h75.837m1.09-1.09H727.09v21.312h78.017Z" transform="translate(-329.342 -349.678)" fill="#a15842"/>
    <circle id="Ellipse_18" data-name="Ellipse 18" cx="3.289" cy="3.289" r="3.289" transform="translate(433.468 314.07)" fill="#a15842"/>
    <path id="Path_95" data-name="Path 95" d="M804.017,779.15v58.865H728.18V779.15h75.837m1.09-1.09H727.09v61.045h78.017Z" transform="translate(-329.342 -438.204)" fill="#a15842"/>
    <circle id="Ellipse_19" data-name="Ellipse 19" cx="3.289" cy="3.289" r="3.289" transform="translate(422.153 367.088)" fill="#a15842"/>
    <circle id="Ellipse_20" data-name="Ellipse 20" cx="3.289" cy="3.289" r="3.289" transform="translate(444.783 367.088)" fill="#a15842"/>
    <line id="Line_26" data-name="Line 26" y2="59.993" transform="translate(436.953 340.381)" fill="none" stroke="#a15842" stroke-miterlimit="10" stroke-width="4"/>
    <rect id="Rectangle_10" data-name="Rectangle 10" width="25.917" height="94.198" transform="translate(487.606 306.702)" fill="#a15842"/>
    <line id="Line_27" data-name="Line 27" x1="26.05" transform="translate(487.473 353.8)" fill="none" stroke="#ffb7d5" stroke-miterlimit="10" stroke-width="4"/>
    <path id="Path_96" data-name="Path 96" d="M314.139,612.92H405.6a5.449,5.449,0,0,1,5.449,5.449V730.8H308.69V618.369A5.449,5.449,0,0,1,314.139,612.92Z" transform="translate(-24.94 -318.059)" fill="#3ec1f3"/>
    <rect id="Rectangle_11" data-name="Rectangle 11" width="71.045" height="72.886" transform="translate(299.406 328.014)" fill="#30242a"/>
    <path id="Path_97" data-name="Path 97" d="M370.45,865.806H299.406l-25-51.046h71.042Z" transform="translate(0 -464.905)" fill="#4756df"/>
    <path id="Path_98" data-name="Path 98" d="M390.884,598.166H366.15l2.632-5.526h19.47Z" transform="translate(-66.744 -303.304)" fill="#30242a"/>
    <path id="Path_99" data-name="Path 99" d="M560.854,598.166H536.12l2.632-5.526h19.47Z" transform="translate(-190.404 -303.304)" fill="#30242a"/>
    <circle id="Ellipse_21" data-name="Ellipse 21" cx="4.869" cy="4.869" r="4.869" transform="translate(299.406 306.7)" fill="#f5ebdd"/>
    <line id="Line_28" data-name="Line 28" x2="3.948" transform="translate(298.88 311.568)" fill="none" stroke="#30242a" stroke-linecap="round" stroke-miterlimit="10" stroke-width="4"/>
    <circle id="Ellipse_22" data-name="Ellipse 22" cx="4.869" cy="4.869" r="4.869" transform="translate(319.84 306.7)" fill="#f5ebdd"/>
    <line id="Line_29" data-name="Line 29" y2="3.945" transform="translate(324.709 306.176)" fill="none" stroke="#30242a" stroke-linecap="round" stroke-miterlimit="10" stroke-width="4"/>
    <circle id="Ellipse_23" data-name="Ellipse 23" cx="4.869" cy="4.869" r="4.869" transform="translate(340.278 306.7)" fill="#f5ebdd"/>
    <line id="Line_30" data-name="Line 30" y2="3.945" transform="translate(345.147 306.176)" fill="none" stroke="#30242a" stroke-linecap="round" stroke-miterlimit="10" stroke-width="4"/>
    <circle id="Ellipse_24" data-name="Ellipse 24" cx="4.869" cy="4.869" r="4.869" transform="translate(360.712 306.7)" fill="#f5ebdd"/>
    <line id="Line_31" data-name="Line 31" y2="3.945" transform="translate(365.581 306.176)" fill="none" stroke="#30242a" stroke-linecap="round" stroke-miterlimit="10" stroke-width="4"/>
    <rect id="Rectangle_12" data-name="Rectangle 12" width="40.521" height="3.419" rx="1.71" transform="translate(296.182 359.59)" fill="#30242a"/>
    <path id="Path_100" data-name="Path 100" d="M680.107,226.131c-4.853,3.12-1.578,9.735,2.893,10a17.805,17.805,0,0,1,.529,12.631h6.812l.025-2.869c6.229,1.55,8.523-.9,9.73-3.106,1.362-2.507.959-4.853.493-7.9,0,0,2.226-.885,2.057-2.229-.136-1.09-2.509-1.49-2.509-1.49-.035-.48-.06-.975-.074-1.49a36.925,36.925,0,0,0-.3-4.087,53.864,53.864,0,0,1-11.746,4.234S683.79,223.761,680.107,226.131Z" transform="translate(-293.41 -36.256)" fill="#a15842"/>
    <path id="Path_101" data-name="Path 101" d="M910.321,545.011c2.853,1.09,4.956-.749,4.43-1.8-.343-.687-10.215-8.092-20.4-15.618l-11.67,14.552c2.678,1.027,4.444,1.608,4.444,1.608a26.476,26.476,0,0,0,7.106,7.1s4.471,10.787,6.839,10.525c1.591-.177-.526-6.316-1.052-8.948,0,0,5.264,8.948,8.683,8.948.79,0,1.518-.545,1.578-1.842,0,0,1.736.477,2.37-.79a4.337,4.337,0,0,0,.272-1.842,2.174,2.174,0,0,0,2.106-.526C916.28,554.864,913.534,549.856,910.321,545.011Z" transform="translate(-442.539 -255.978)" fill="#a15842"/>
    <path id="Path_102" data-name="Path 102" d="M580.026,420.662q-.207-.18-.466-.392C579.713,420.4,579.865,420.532,580.026,420.662Z" transform="translate(-222.008 -177.899)" fill="#ff7235"/>
    <path id="Path_103" data-name="Path 103" d="M635.241,353.277s-12.141-27.941-17.1-34.469c-5.005-6.58-15.321-6.22-15.321-6.22l.016-1.937h-6.812s7.357,14.735-6.58,21.05c-5.261,17.1-21.576,12.629-25.522,9.209-1.58,2.894-9.474,15.786-5.264,25.522,3.684,7.629,16.841,6.051,16.841,6.051l2.632-5.526H600.9l8.553-18.669,2.9,7.092a51.643,51.643,0,0,0,11.577,16.841c5.632,5.269,16.157,9.784,22.132,12.076l11.67-14.539C646.663,361.587,635.241,353.277,635.241,353.277Z" transform="translate(-205.912 -98.146)" fill="#ff7235"/>
    <line id="Line_32" data-name="Line 32" x1="5.419" y2="2.471" transform="translate(365.121 256.869)" fill="none" stroke="#30242a" stroke-linecap="round" stroke-linejoin="round" stroke-width="4"/>
    <line id="Line_33" data-name="Line 33" x1="3.534" y1="23.8" transform="translate(368.954 246.066)" fill="none" stroke="#30242a" stroke-linecap="round" stroke-linejoin="round" stroke-width="4"/>
    <path id="Path_104" data-name="Path 104" d="M716.95,467.419l10.656.011.79-11.577-2.894-7.1Z" transform="translate(-321.964 -198.619)" fill="#ffbe21"/>
    <path id="Path_105" data-name="Path 105" d="M605.285,178.122a14.554,14.554,0,0,0-11.512-1.493c-8.618,2.684-10.272,10.146-11.411,15.089-.79,3.419-1.58,7.356-1.58,7.356s-14.735,1.052-13.154,16.051c-7.833,1.79-16.043,12.332-9.746,22.4a20.871,20.871,0,0,0,4.28,4.831q.259.213.466.392c3.945,3.419,20.26,7.9,25.522-9.209,13.947-6.316,6.58-21.05,6.58-21.05a17.806,17.806,0,0,0-.529-12.631c-4.471-.272-7.746-6.877-2.894-10,3.684-2.37,7.9,3.708,7.9,3.708a53.864,53.864,0,0,0,11.746-4.234v-.03c0-.008,4.19-2.022,5.343-5.76C618.409,176.719,609.726,173.035,605.285,178.122Z" transform="translate(-204.61)" fill="#ffbe21"/>
    <path id="Path_106" data-name="Path 106" d="M742.4,436.586c-1.493-3.507-4.049-9.732-5.645-14.876" transform="translate(-336.37 -178.946)" fill="none" stroke="#30242a" stroke-linecap="round" stroke-linejoin="round" stroke-width="4"/>
    <path id="Path_107" data-name="Path 107" d="M942.417,614.1l-.937-2.152" transform="translate(-485.319 -317.353)" fill="none" stroke="#30242a" stroke-linecap="round" stroke-linejoin="round" stroke-width="4"/>
    <path id="Path_108" data-name="Path 108" d="M962.174,614.36c-1.711-2.231-5.264-7.231-8.174-11.1" transform="translate(-494.427 -311.031)" fill="none" stroke="#30242a" stroke-linecap="round" stroke-linejoin="round" stroke-width="4"/>
    <path id="Path_109" data-name="Path 109" d="M975.036,604.615c-2.093-3.076-5.3-7.9-7.476-11" transform="translate(-504.293 -304.01)" fill="none" stroke="#30242a" stroke-linecap="round" stroke-linejoin="round" stroke-width="4"/>
    <path id="Path_110" data-name="Path 110" d="M977.68,578.227c-.984-1.509-2.087-3.152-3.27-4.817" transform="translate(-509.276 -289.314)" fill="none" stroke="#30242a" stroke-linecap="round" stroke-linejoin="round" stroke-width="4"/>
    <path id="Path_111" data-name="Path 111" d="M740.47,183.73c.6.428,1.281.926,1.88,1.428" transform="translate(-339.076 -5.807)" fill="none" stroke="#ca7358" stroke-linecap="round" stroke-linejoin="round" stroke-width="4"/>
    <line id="Line_34" data-name="Line 34" x1="0.651" y2="3.125" transform="translate(374.856 199.379)" fill="none" stroke="#ca7358" stroke-linecap="round" stroke-linejoin="round" stroke-width="4"/>
    <path id="Path_112" data-name="Path 112" d="M597.65,322.08a18.5,18.5,0,0,0,2.379,6.095" transform="translate(-235.169 -106.462)" fill="none" stroke="#ca7358" stroke-linecap="round" stroke-linejoin="round" stroke-width="4"/>
    <path id="Path_113" data-name="Path 113" d="M715.573,298.3a17.629,17.629,0,0,1-3.013-1.384" transform="translate(-318.771 -88.157)" fill="none" stroke="#30242a" stroke-linecap="round" stroke-linejoin="round" stroke-width="4"/>
    <path id="Path_114" data-name="Path 114" d="M688.8,724l-.076.025Z" transform="translate(-301.426 -398.874)" fill="none"/>
    <path id="Path_115" data-name="Path 115" d="M690.669,723.25h-.019Z" transform="translate(-302.83 -398.328)" fill="none"/>
    <path id="Path_116" data-name="Path 116" d="M687.063,724.49h0Z" transform="translate(-300.197 -399.23)" fill="none"/>
    <path id="Path_117" data-name="Path 117" d="M679.654,724.61h0Z" transform="translate(-294.798 -399.318)" fill="none"/>
    <path id="Path_118" data-name="Path 118" d="M693.89,721.34Z" transform="translate(-305.188 -396.939)" fill="none"/>
    <path id="Path_119" data-name="Path 119" d="M681.264,724.86h0Z" transform="translate(-295.926 -399.499)" fill="none"/>
    <path id="Path_120" data-name="Path 120" d="M685.039,724.8l-.109.014Z" transform="translate(-298.669 -399.456)" fill="none"/>
    <path id="Path_121" data-name="Path 121" d="M692.294,722.37l-.025.016Z" transform="translate(-304.009 -397.688)" fill="none"/>
    <path id="Path_122" data-name="Path 122" d="M723.326,715.13a4.863,4.863,0,0,1-8.683,0,4.863,4.863,0,0,1-8.683,0,4.861,4.861,0,0,1-8.681,0,4.93,4.93,0,0,1-.678,1h0c7.256,19.565,2.782,29.039.678,47.983a80.42,80.42,0,0,0-.365,12.1h25.173c.915-7.978,2.8-18.754,3.874-32.115a9.473,9.473,0,0,1,.523-18.925h.272c0-2.55-.079-5.054-.207-7.509A4.871,4.871,0,0,1,723.326,715.13Z" transform="translate(-307.159 -392.421)" fill="#f5ebdd"/>
    <path id="Path_123" data-name="Path 123" d="M530.785,715.13a4.863,4.863,0,0,1-8.683,0,4.863,4.863,0,0,1-8.683,0,4.861,4.861,0,0,1-7.444,1.553c-2.452,7.226-5.278,9.555-17.816,28.747a102.336,102.336,0,0,0-8.468,16l22.614,11.5c4.716-7.858,11.89-17.41,17.874-26.974a9.471,9.471,0,0,1,8.719-16.789c2.027-4.82,3.485-9.04,4.4-11.716h0A4.888,4.888,0,0,1,530.785,715.13Z" transform="translate(-149.349 -392.421)" fill="#f5ebdd"/>
    <path id="Path_124" data-name="Path 124" d="M605.9,573.821c.155-.019.311-.044.463-.076h.033q.221-.052.433-.123l.071-.019c.15-.054.3-.112.444-.18h.019c.144-.068.272-.142.422-.223l.025-.016a4.741,4.741,0,0,0,.411-.272h0a4.8,4.8,0,0,0,.738-.692,4.932,4.932,0,0,0,.678-1,4.861,4.861,0,0,0,8.681,0,4.863,4.863,0,0,0,8.683,0,4.863,4.863,0,0,0,8.683,0,4.872,4.872,0,0,0,3.218,2.539,157.667,157.667,0,0,0-2.755-22,15.149,15.149,0,0,1-11.765-1.583c-7.55-4.313-9.441-25.418-9.877-32.892H591.761c-13.157,11.841-12.893,47.1-15.394,54.83-.068.213-.139.417-.207.621a4.861,4.861,0,0,0,7.444-1.553,4.863,4.863,0,0,0,8.683,0,4.863,4.863,0,0,0,8.683,0,4.888,4.888,0,0,0,2.5,2.31,4.8,4.8,0,0,0,.877.272h.044c.125.025.251.044.379.057h.1c.144,0,.292.022.439.022a3.3,3.3,0,0,0,.485-.025Z" transform="translate(-219.534 -248.477)" fill="#30242a"/>
    <path id="Path_125" data-name="Path 125" d="M701.8,964.844h21.576s.774-5.1,3.507-8.43a9.426,9.426,0,0,1-4.3-6.569,45.178,45.178,0,0,1,.338-10.525H697.75a116.579,116.579,0,0,0,4.049,25.524Z" transform="translate(-307.996 -555.527)" fill="#ff7235"/>
    <path id="Path_126" data-name="Path 126" d="M450.458,909.83l-.678-.338a1.715,1.715,0,0,0-.21-.087l20.195,10.321s3-4.109,6.858-5.787a15.78,15.78,0,0,1-1.169-3.319c-.741-3.27,1.411-8.207,4.934-14.075l-22.614-11.5A108.727,108.727,0,0,0,450.458,909.83Z" transform="translate(-127.436 -516.044)" fill="#ff7235"/>
    <path id="Path_127" data-name="Path 127" d="M706.1,1010.49h-.659a1.711,1.711,0,1,0,0,3.419h36.186c0-7.084-6.065-8.681-10.438-11.849-2.725,3.329-3.507,8.43-3.507,8.43Z" transform="translate(-312.295 -601.173)" fill="#30242a"/>
    <path id="Path_128" data-name="Path 128" d="M463.9,984.544l-20.195-10.321a1.651,1.651,0,0,0-1.278,3.038l32.151,16.331c3.087-6.395-1.327-9.574-3.831-14.836C466.9,980.435,463.9,984.544,463.9,984.544Z" transform="translate(-121.574 -580.853)" fill="#30242a"/>
    <path id="Path_129" data-name="Path 129" d="M771.52,761.475a9.471,9.471,0,0,0,8.949,9.457c.43-5.37.732-11.171.787-17.35V752.01h-.272A9.474,9.474,0,0,0,771.52,761.475Z" transform="translate(-361.666 -419.252)" fill="#ffbe21"/>
    <path id="Path_130" data-name="Path 130" d="M611.2,773.061a9.463,9.463,0,0,0,4.654,8.152c.657-1.052,1.3-2.1,1.926-3.152a111.517,111.517,0,0,0,6.784-13.637,9.474,9.474,0,0,0-13.351,8.637Z" transform="translate(-245.027 -427.68)" fill="#ffbe21"/>
    <path id="Path_131" data-name="Path 131" d="M726.8,550.172a15.15,15.15,0,0,0,11.776,1.542c-4.087-20.835-10.988-34.434-10.988-34.434H716.92C717.356,524.762,719.247,545.867,726.8,550.172Z" transform="translate(-321.943 -248.477)" fill="#ffbe21"/>
    <path id="Path_132" data-name="Path 132" d="M746.118,266.308a2.127,2.127,0,0,1-2.648-1.008" transform="translate(-341.259 -65.152)" fill="none" stroke="#30242a" stroke-linecap="round" stroke-linejoin="round" stroke-width="4"/>
    <circle id="Ellipse_25" data-name="Ellipse 25" cx="0.79" cy="0.79" r="0.79" transform="translate(403.009 193.821)" fill="#30242a"/>
    <line id="Line_35" data-name="Line 35" x2="2.629" y2="1.842" transform="translate(388.803 194.347)" fill="none" stroke="#30242a" stroke-linecap="round" stroke-linejoin="round" stroke-width="4"/>
    <line id="Line_36" data-name="Line 36" x2="33.679" transform="translate(371.962 268.811)" fill="none" stroke="#30242a" stroke-linecap="round" stroke-miterlimit="10" stroke-width="4"/>
    <path id="Path_133" data-name="Path 133" d="M667.93,520.21s6.163,8.811,3.27,9.762C668.524,530.85,668,524.27,667.93,520.21Z" transform="translate(-286.301 -250.609)" fill="none" stroke="#a15842" stroke-linecap="round" stroke-linejoin="round" stroke-width="4"/>
    <path id="Path_134" data-name="Path 134" d="M651.541,520.21s-3.161,7.9-5.528,6.577C644.471,525.932,648.38,522.06,651.541,520.21Z" transform="translate(-270.102 -250.609)" fill="none" stroke="#a15842" stroke-linecap="round" stroke-linejoin="round" stroke-width="4"/>
    <rect id="Rectangle_13" data-name="Rectangle 13" width="45.785" height="3.419" rx="1.71" transform="translate(289.079 267.495)" fill="#30242a"/>
    <path id="Path_135" data-name="Path 135" d="M364.493,492.458A21.413,21.413,0,0,1,346.6,483.51V505.6a7.643,7.643,0,0,0,7.629,7.629h20.5a7.643,7.643,0,0,0,7.643-7.629V483.51A21.372,21.372,0,0,1,364.493,492.458Z" transform="translate(-52.521 -223.908)" fill="#ffb7d5"/>
    <path id="Path_136" data-name="Path 136" d="M364.493,492.458a21.411,21.411,0,0,0,17.89-8.948H346.6A21.413,21.413,0,0,0,364.493,492.458Z" transform="translate(-52.521 -223.908)" fill="#a15842"/>
    <circle id="Ellipse_26" data-name="Ellipse 26" cx="3.289" cy="3.289" r="3.289" transform="translate(309.075 253.024)" fill="#30242a"/>
    <circle id="Ellipse_27" data-name="Ellipse 27" cx="4.869" cy="4.869" r="4.869" transform="translate(307.759 229.342)" fill="#f5ebdd"/>
    <circle id="Ellipse_28" data-name="Ellipse 28" cx="7.171" cy="7.171" r="7.171" transform="translate(305.542 210.136)" fill="#f5ebdd"/>
    <path id="Path_137" data-name="Path 137" d="M1222.378,809a10.124,10.124,0,0,1-18.149,0s-18.462,42.248-.313,64.465h18.778C1240.843,851.232,1222.378,809,1222.378,809Z" transform="translate(-670.441 -460.715)" fill="#3ec1f3"/>
    <path id="Path_138" data-name="Path 138" d="M1235.466,814.594a10.156,10.156,0,0,0,9.076-5.635H1226.39A10.156,10.156,0,0,0,1235.466,814.594Z" transform="translate(-692.601 -460.685)" fill="#30242a"/>
    <path id="Path_139" data-name="Path 139" d="M1237.606,947c-10.215.182-22.293,3.869-31.606,16.893" transform="translate(-677.767 -561.115)" fill="none" stroke="#f5ebdd" stroke-linecap="round" stroke-linejoin="round" stroke-width="4"/>
    <path id="Path_140" data-name="Path 140" d="M1200,903.783c6.855-1.673,19.841-3.27,32.423-.272" transform="translate(-673.402 -528.252)" fill="none" stroke="#f5ebdd" stroke-linecap="round" stroke-linejoin="round" stroke-width="4"/>
    <path id="Path_141" data-name="Path 141" d="M1286.314,986.81c-4.569.052-13.016,5.229-12.084,15.664" transform="translate(-727.355 -590.078)" fill="none" stroke="#f5ebdd" stroke-linecap="round" stroke-linejoin="round" stroke-width="4"/>
    <line id="Line_37" data-name="Line 37" x1="5.024" y2="43.935" transform="translate(543.497 306.975)" fill="none" stroke="#30242a" stroke-miterlimit="10" stroke-width="4"/>
    <line id="Line_38" data-name="Line 38" x1="6.316" y2="25.928" transform="translate(544.635 324.622)" fill="none" stroke="#30242a" stroke-miterlimit="10" stroke-width="4"/>
    <ellipse id="Ellipse_29" data-name="Ellipse 29" cx="2.64" cy="11.018" rx="2.64" ry="11.018" transform="translate(516.474 330.327) rotate(-66.85)" fill="#30242a"/>
    <ellipse id="Ellipse_30" data-name="Ellipse 30" cx="11.424" cy="2.537" rx="11.424" ry="2.537" transform="translate(546.241 338.17) rotate(-20.66)" fill="#30242a"/>
    <ellipse id="Ellipse_31" data-name="Ellipse 31" cx="1.964" cy="6.416" rx="1.964" ry="6.416" transform="translate(534.507 323.698) rotate(-54.06)" fill="#30242a"/>
    <line id="Line_39" data-name="Line 39" x2="12.343" y2="36.75" transform="translate(530.124 314.157)" fill="none" stroke="#30242a" stroke-miterlimit="10" stroke-width="4"/>
    <path id="Path_142" data-name="Path 142" d="M1271.25,681.434a7.267,7.267,0,1,1,9.757,9.582A13.533,13.533,0,0,0,1271.25,681.434Z" transform="translate(-725.239 -364.828)" fill="#ff7235"/>
    <path id="Path_143" data-name="Path 143" d="M1285.2,687.657a13.593,13.593,0,0,1,5.882-7.547" transform="translate(-735.388 -366.942)" fill="none" stroke="#f5ebdd" stroke-linecap="round" stroke-miterlimit="10" stroke-width="4"/>
    <path id="Path_144" data-name="Path 144" d="M1289.65,697.915a13.478,13.478,0,0,1,8.174-5.035" transform="translate(-738.625 -376.233)" fill="none" stroke="#f5ebdd" stroke-linecap="round" stroke-miterlimit="10" stroke-width="4"/>
    <path id="Path_145" data-name="Path 145" d="M1279.231,702.313a7.267,7.267,0,0,1-9.757-9.582A13.533,13.533,0,0,1,1279.231,702.313Z" transform="translate(-723.463 -376.124)" fill="#ff7235"/>
    <path id="Path_146" data-name="Path 146" d="M1194.268,644.687a7.267,7.267,0,1,0-8.634,10.6A13.542,13.542,0,0,1,1194.268,644.687Z" transform="translate(-659.411 -338.604)" fill="#ff7235"/>
    <path id="Path_147" data-name="Path 147" d="M1200.271,652.36a13.568,13.568,0,0,0-6.681-6.85" transform="translate(-668.738 -341.769)" fill="none" stroke="#f5ebdd" stroke-linecap="round" stroke-miterlimit="10" stroke-width="4"/>
    <path id="Path_148" data-name="Path 148" d="M1190.881,663.747a13.479,13.479,0,0,0-8.692-4.087" transform="translate(-660.444 -352.064)" fill="none" stroke="#f5ebdd" stroke-linecap="round" stroke-miterlimit="10" stroke-width="4"/>
    <path id="Path_149" data-name="Path 149" d="M1198.62,664.677a7.267,7.267,0,0,0,8.634-10.607A13.541,13.541,0,0,0,1198.62,664.677Z" transform="translate(-672.398 -347.997)" fill="#ff7235"/>
    <path id="Path_150" data-name="Path 150" d="M1267.2,622.43a7.267,7.267,0,1,0-12.972,4.335,13.539,13.539,0,0,1,12.972-4.335Z" transform="translate(-711.719 -319.572)" fill="#ff7235"/>
    <path id="Path_151" data-name="Path 151" d="M1281.578,624.7a13.582,13.582,0,0,0-1.978-9.365" transform="translate(-731.314 -319.82)" fill="none" stroke="#f5ebdd" stroke-linecap="round" stroke-miterlimit="10" stroke-width="4"/>
    <path id="Path_152" data-name="Path 152" d="M1267.569,629.281a13.49,13.49,0,0,0-5.15-8.111" transform="translate(-718.814 -324.061)" fill="none" stroke="#f5ebdd" stroke-linecap="round" stroke-miterlimit="10" stroke-width="4"/>
    <path id="Path_153" data-name="Path 153" d="M1258.41,645.835a7.267,7.267,0,0,0,12.966-4.335A13.539,13.539,0,0,0,1258.41,645.835Z" transform="translate(-715.897 -338.642)" fill="#ff7235"/>
    <path id="Path_154" data-name="Path 154" d="M1208.254,655.11a13.541,13.541,0,0,0-8.634,10.6" transform="translate(-673.125 -348.754)" fill="none" stroke="#f5ebdd" stroke-linecap="round" stroke-miterlimit="10" stroke-width="4"/>
    <path id="Path_155" data-name="Path 155" d="M1271.548,641.287a13.538,13.538,0,0,0-13.078,3.983" transform="translate(-715.941 -338.429)" fill="none" stroke="#f5ebdd" stroke-linecap="round" stroke-miterlimit="10" stroke-width="4"/>
    <path id="Path_156" data-name="Path 156" d="M1282.507,701.485a13.542,13.542,0,0,0-10.187-9.125" transform="translate(-726.017 -375.854)" fill="none" stroke="#f5ebdd" stroke-linecap="round" stroke-miterlimit="10" stroke-width="4"/>
  </g>
</svg>
