<svg xmlns="http://www.w3.org/2000/svg" width="295" height="237.64" viewBox="0 0 295 237.64">
  <g id="Layer_7" data-name="Layer 7" transform="translate(-257.78 -141)">
    <rect id="Rectangle_1" data-name="Rectangle 1" width="6.427" height="109.228" transform="translate(304.444 267.535)" fill="#ffbe21"/>
    <line id="Line_1" data-name="Line 1" x1="6.429" transform="translate(304.444 269.037)" fill="none" stroke="#a15842" stroke-miterlimit="10" stroke-width="4"/>
    <path id="Path_1" data-name="Path 1" d="M301.115,876.714a9.527,9.527,0,0,1,17.992,0,9.527,9.527,0,0,1,8.47-6.377,23.735,23.735,0,0,0-2.988-4.187l-3.459-3.891a7.881,7.881,0,0,1-1.047-8.983l2.936-5.456h0a18.181,18.181,0,0,1-25.644,0h-.013l2.939,5.456a7.876,7.876,0,0,1-1.078,8.983l-3.457,3.875a23.836,23.836,0,0,0-3,4.187A9.53,9.53,0,0,1,301.115,876.714Z" transform="translate(-25.834 -521.867)" fill="#4756df"/>
    <path id="Path_2" data-name="Path 2" d="M319.546,979.3a9.527,9.527,0,0,0-9,6.394,9.525,9.525,0,0,0-17.993,0A9.533,9.533,0,0,0,281.18,979.6a23.7,23.7,0,0,0,6.8,16.1h27.263a23.7,23.7,0,0,0,6.8-16.067A9.479,9.479,0,0,0,319.546,979.3Z" transform="translate(-17.277 -618.944)" fill="#4756df"/>
    <path id="Path_3" data-name="Path 3" d="M323.112,853.151a18.854,18.854,0,0,0,12.822-5.291H310.29A18.892,18.892,0,0,0,323.112,853.151Z" transform="translate(-38.77 -521.897)" fill="#30242a"/>
    <path id="Path_4" data-name="Path 4" d="M292.553,952.117a9.525,9.525,0,0,1,17.992,0,9.525,9.525,0,0,1,11.513-6.058,23.733,23.733,0,0,0-3.038-12.228,9.527,9.527,0,0,0-8.47,6.377,9.527,9.527,0,0,0-17.992,0,9.53,9.53,0,0,0-8.345-6.369,23.728,23.728,0,0,0-3.033,12.183,9.533,9.533,0,0,1,11.377,6.094Z" transform="translate(-17.273 -585.362)" fill="#3ec1f3"/>
    <path id="Path_5" data-name="Path 5" d="M366.55,800.889c.523-3.2,2.9-15.9,8.884-22.8" transform="translate(-80.308 -470.383)" fill="none" stroke="#30242a" stroke-linecap="round" stroke-miterlimit="10" stroke-width="4"/>
    <path id="Path_6" data-name="Path 6" d="M344.814,774.851c-.039-3.637-.413-21.5-3.964-32.151" transform="translate(-61.333 -444.254)" fill="none" stroke="#30242a" stroke-linecap="round" stroke-miterlimit="10" stroke-width="4"/>
    <ellipse id="Ellipse_1" data-name="Ellipse 1" cx="10.375" cy="2.334" rx="10.375" ry="2.334" transform="translate(287.844 318.006) rotate(-23.75)" fill="#30242a"/>
    <ellipse id="Ellipse_2" data-name="Ellipse 2" cx="5.741" cy="2.002" rx="5.741" ry="2.002" transform="translate(292.583 287.871) rotate(-53.51)" fill="#30242a"/>
    <ellipse id="Ellipse_3" data-name="Ellipse 3" cx="12.521" cy="2.211" rx="12.521" ry="2.211" transform="translate(257.78 317.414) rotate(-8.6)" fill="#30242a"/>
    <path id="Path_7" data-name="Path 7" d="M278.7,756.58v.018a4.629,4.629,0,0,1-3.779,8.413v.016c5.731,2.575,11.228,2.771,12.275.44S284.432,759.155,278.7,756.58Z" transform="translate(-12.655 -454.502)" fill="#ff7235"/>
    <path id="Path_8" data-name="Path 8" d="M310.46,682.408c-1.219-.317-2.805,1.528-3.964,4.383-1.395-3.467-3.417-5.788-4.781-5.338s-1.607,3.517-.662,7.133c-2.632-1.6-5-2.14-5.8-1.159-1.01,1.251.937,4.5,4.349,7.251a19.55,19.55,0,0,0,3.119,2.078,4.626,4.626,0,0,1,7.34-2.512,19.624,19.624,0,0,0,1.219-3.423C312.386,686.579,312.017,682.811,310.46,682.408Z" transform="translate(-27.474 -398.992)" fill="#ff7235"/>
    <path id="Path_9" data-name="Path 9" d="M409.743,729.927c-.377-1.2-2.782-1.57-5.817-1.047,2.2-3.017,3.1-5.961,2-6.879s-3.836.5-6.406,3.211c-.031-3.082-.829-5.38-2.08-5.534-1.594-.2-3.321,3.174-3.854,7.523a19.6,19.6,0,0,0-.115,3.75,4.626,4.626,0,0,1,6.018,4.9,19.851,19.851,0,0,0,3.551-.785C407.221,733.765,410.222,731.46,409.743,729.927Z" transform="translate(-100.155 -427.249)" fill="#ff7235"/>
    <path id="Path_10" data-name="Path 10" d="M397.965,762.974a4.621,4.621,0,0,0-4.375-.85c.149,2.07.672,3.663,1.46,4.242.735.68,2.436.908,4.553.659a4.618,4.618,0,0,0-1.638-4.051Z" transform="translate(-100.273 -458.431)" fill="#30242a"/>
    <path id="Path_11" data-name="Path 11" d="M327.585,726.958a4.624,4.624,0,0,0-3.035,3.263c1.832.968,3.459,1.361,4.375,1,.966-.262,2.057-1.588,2.965-3.517A4.619,4.619,0,0,0,327.585,726.958Z" transform="translate(-49.298 -432.458)" fill="#30242a"/>
    <path id="Path_12" data-name="Path 12" d="M279.187,764.416a2.248,2.248,0,0,1,1.845-4.082,4.624,4.624,0,0,0-2.355-3.663l-3.786,8.407A4.629,4.629,0,0,0,279.187,764.416Z" transform="translate(-12.633 -454.569)" fill="#f5ebdd"/>
    <path id="Path_13" data-name="Path 13" d="M287.082,771.475a2.248,2.248,0,0,0,.963,2.878,4.613,4.613,0,0,0,1.845-4.082A2.248,2.248,0,0,0,287.082,771.475Z" transform="translate(-21.491 -464.514)" fill="#4856df"/>
    <path id="Path_14" data-name="Path 14" d="M760.71,597.287H694.16l1.125-4.464H724.5L735.64,549.25a27.585,27.585,0,0,1,26.724-20.75h0a22.958,22.958,0,0,1,22.242,28.653l-6.885,26.923A17.563,17.563,0,0,1,760.71,597.287Z" transform="translate(-322.193 -286.103)" fill="#ffb7d5"/>
    <rect id="Rectangle_2" data-name="Rectangle 2" width="4.726" height="42.414" transform="translate(372.483 357.146) rotate(-90)" fill="#a15842"/>
    <path id="Path_15" data-name="Path 15" d="M725.726,847.016,714.694,781.35H680.368l-11.032,65.666a2.18,2.18,0,0,0,2.151,2.538h0a2.182,2.182,0,0,0,2.13-1.717l14.449-66.487h18.94l14.444,66.487a2.18,2.18,0,0,0,2.13,1.717h0a2.18,2.18,0,0,0,2.146-2.538Z" transform="translate(-303.843 -472.79)" fill="#a15842"/>
    <rect id="Rectangle_3" data-name="Rectangle 3" width="4.726" height="42.414" transform="translate(407.62 357.146) rotate(-90)" fill="#ffbe21"/>
    <path id="Path_16" data-name="Path 16" d="M860.013,847.016,848.971,781.35H814.658l-11.032,65.666a2.18,2.18,0,0,0,2.151,2.538h0a2.177,2.177,0,0,0,2.127-1.716l14.444-66.488h18.942l14.444,66.487a2.18,2.18,0,0,0,2.133,1.717h0a2.18,2.18,0,0,0,2.146-2.538Z" transform="translate(-402.993 -472.79)" fill="#ffbe21"/>
    <path id="Path_17" data-name="Path 17" d="M744.544,694.456,748.752,678H720.866a24.626,24.626,0,0,0-23.856,18.52l-2.85,11.148h33.371a17.562,17.562,0,0,0,17.013-13.21Z" transform="translate(-322.193 -396.484)" fill="#ffb7d5"/>
    <line id="Line_2" data-name="Line 2" x2="35.404" transform="translate(373.781 306.283)" fill="none" stroke="#a15842" stroke-linecap="round" stroke-linejoin="round" stroke-width="4"/>
    <line id="Line_3" data-name="Line 3" y1="24.257" x2="6.204" transform="translate(402.431 281.862)" fill="none" stroke="#a15842" stroke-linecap="round" stroke-linejoin="round" stroke-width="4"/>
    <line id="Line_4" data-name="Line 4" x1="16.747" transform="translate(442.576 280.954)" fill="none" stroke="#a15842" stroke-linecap="round" stroke-linejoin="round" stroke-width="4"/>
    <line id="Line_5" data-name="Line 5" x1="21.457" transform="translate(441.006 269.178)" fill="none" stroke="#a15842" stroke-linecap="round" stroke-linejoin="round" stroke-width="4"/>
    <path id="Path_18" data-name="Path 18" d="M495.49,610.5s-20.994,5.717-29.911,10.179c-14.7,7.35-14.653,12.2-23.618,39.36-8.277,25.1-9.187,37.264-20.6,37.746-8.716.366-11.574,3.219-12.987,7.128l34.491,16.365a1.714,1.714,0,0,0,2.237-.727h0a1.714,1.714,0,0,0-.646-2.3l-.725-.419A127.591,127.591,0,0,0,459.28,693.1l3.925,1.832s6.34-8.24,7.345-17.587c1.308-12.071.523-20.206,6.037-24.929l64.292-41.93Z" transform="translate(-111.185 -346.639)" fill="#ff7235"/>
    <path id="Path_19" data-name="Path 19" d="M445.05,925.783c.683-1.421,4.477-10.077,6.659-9.03,2.839,1.361-4.529,10.051-4.529,10.051Z" transform="translate(-138.267 -572.698)" fill="#30242a"/>
    <path id="Path_20" data-name="Path 20" d="M408.36,951.86l34.491,16.362a1.711,1.711,0,0,0,1.591-3.028l-.725-.419.073-.089L420.083,953.5a14.7,14.7,0,0,0,.743-3.041c3.548.615,10.728,1.277,10.765-1.683.039-2.758-7.8-1.651-10.668-.871a11.684,11.684,0,0,0-.612-3.111C412.405,945.334,409.715,948.108,408.36,951.86Z" transform="translate(-111.178 -593.463)" fill="#30242a"/>
    <path id="Path_21" data-name="Path 21" d="M608.837,640.4c-1.651.824-3.114,1.617-4.425,2.413l-2.012,6.445,7.745-5.456,7.141,5.694-2.632-7.806,8.088-3.705-6.251-.785A77.861,77.861,0,0,0,608.837,640.4Z" transform="translate(-254.443 -366.36)" fill="#ffb7d5"/>
    <path id="Path_22" data-name="Path 22" d="M712.733,636.61l-.523,3.41,3.412-1.311Z" transform="translate(-335.52 -365.924)" fill="#ffb7d5"/>
    <path id="Path_23" data-name="Path 23" d="M598.274,701.79l-4.985,6.56-7.086-3.41,4.2,7.083-6.56,5.511,8.4-1.049,2.889,9.711,2.886-9.711,9.185-2.625-8.923-3.674Z" transform="translate(-240.74 -414.049)" fill="#ffb7d5"/>
    <path id="Path_24" data-name="Path 24" d="M515.457,853.48l.612-1.748,8.373-.445-6.8-4.632,3.03-7.256-6.853,4.569-1.308-1.413c-1.047,3.446-1.973,6.516-2.878,9.213h.042c.1-.3.2-.594.3-.9Z" transform="translate(-185.949 -515.651)" fill="#ffb7d5"/>
    <path id="Path_25" data-name="Path 25" d="M473.786,885.878l-5.5-2.6c-.1.3-.2.6-.3.9-3.321,9.891-6.345,14.837-13.539,15.14-.353,0-.693.034-1.028.058a11.683,11.683,0,0,1,.612,3.111c2.878-.785,10.707-1.887,10.668.871-.042,2.959-7.217,2.3-10.765,1.683a14.7,14.7,0,0,1-.751,3.041L476.9,919.273a128.227,128.227,0,0,0,15.472-24.62Z" transform="translate(-144.277 -548.049)" fill="#eaa58b"/>
    <path id="Path_26" data-name="Path 26" d="M588.973,817.12l-.785,7.086-7.348-.262,6.3,4.726-2.355,8.4,6.3-5.513,5.665,3.779q.235-.751.432-1.52l-2.172-5.409,3.365-3.687c.055-.686.107-1.361.157-2.018l-5.877.981Z" transform="translate(-238.525 -499.201)" fill="#ffb7d5"/>
    <path id="Path_27" data-name="Path 27" d="M543.279,760.83c-.662,2.046-1.374,4.268-2.159,6.683l6.981.427Z" transform="translate(-209.199 -457.64)" fill="#ffb7d5"/>
    <path id="Path_28" data-name="Path 28" d="M643.58,974.52c.11-1.57.453-11.016,2.865-10.846,3.14.22-.51,11.011-.51,11.011Z" transform="translate(-284.848 -607.404)" fill="#30242a"/>
    <path id="Path_29" data-name="Path 29" d="M682.454,612s-26.243,4.867-40.676,10.9c-14.572,6.094-14.431,16.917-11.809,46.315,2.355,26.319,6.563,39.1-2.093,43.034-7.939,3.611-10.7,8.138-10.32,12.278h39.08a1.677,1.677,0,0,0,1.677-1.677h0a1.677,1.677,0,0,0-1.677-1.677h-.659c1.232-4.032,3.02-11.9,3.266-24.929h4.846s2.491-11.513-.262-21.781c-2.878-10.757-5.511-12.594-7.083-19.942h23.516a28.108,28.108,0,0,0,27.494-34.137,29.861,29.861,0,0,0-2.988-8.373Z" transform="translate(-265.608 -347.754)" fill="#ff7235"/>
    <path id="Path_30" data-name="Path 30" d="M764.986,670.7l-4.817,6.06-7.5-2.577,4.446,7.277-5.772,7.874,7.609-3.15L763.191,694l.481-8.606,7.348-1.573-6.3-3.938Z" transform="translate(-364.411 -391.094)" fill="#ffb7d5"/>
    <path id="Path_31" data-name="Path 31" d="M759.694,849.48l4.448,7.277-5.772,7.874,7.609-3.14,2.821,5.2a50.053,50.053,0,0,0-.7-15.755l-.9,1.133Z" transform="translate(-369.601 -523.093)" fill="#ffb7d5"/>
    <path id="Path_32" data-name="Path 32" d="M676.083,883.5l-.338-4.056,8.52-3.286-8.065-1.672.89-8.852-5.233,6.848-.157-.065c.5,4.226.942,7.918,1.188,11.113V883.5Z" transform="translate(-305.61 -535.017)" fill="#ffb7d5"/>
    <path id="Path_33" data-name="Path 33" d="M656.606,958.839h-.659c1.232-4.032,3.02-11.9,3.266-24.929H632.849v.024c.021.262.039.523.058.785v.073c.547,8.177-.345,12.96-5.071,15.109-7.939,3.611-10.7,8.138-10.32,12.277h39.091a1.677,1.677,0,0,0,0-3.355Z" transform="translate(-265.579 -585.43)" fill="#eaa58b"/>
    <path id="Path_34" data-name="Path 34" d="M848.49,614.59l-12.055,1.068,1.256,4.846-7.711,4.113,9.606,1.285,3.25,7.2,3.342-7.455,9.771-1.544-8.486-4.37Z" transform="translate(-422.473 -349.666)" fill="#ffb7d5"/>
    <path id="Path_35" data-name="Path 35" d="M667.289,690.849l2.878-9.185,8.4,1.308L672,677.2l4.71-5.511-8.659,3.14-1.384-2.373a19.128,19.128,0,0,0-4.291,9.682l1.476.047Z" transform="translate(-298.729 -391.825)" fill="#ffb7d5"/>
    <path id="Path_36" data-name="Path 36" d="M752.167,634.8c-1.771.492-3.535,1.007-5.257,1.539l6.937,4.71Z" transform="translate(-361.14 -364.588)" fill="#ffb7d5"/>
    <path id="Path_37" data-name="Path 37" d="M688.462,775.589l-3.674-7.609-1.837,8.4-6.822-.523,6.3,5.511-3.936,9.185,6.832-6.369,5.662,6.529-1.735-9.87,5.772-7.609Z" transform="translate(-308.881 -462.919)" fill="#ffb7d5"/>
    <path id="Path_38" data-name="Path 38" d="M629.611,998.046c3.47-.958,10.242-3.423,9.017-6.115-1.141-2.512-7.761,1.832-10.019,3.765a11.564,11.564,0,0,0-2.159-2.821c-6.851,3.488-9.255,7.711-8.9,11.595h39.08a1.677,1.677,0,0,0,1.677-1.677h0a1.677,1.677,0,0,0-1.677-1.677h-26.4A14.873,14.873,0,0,0,629.611,998.046Z" transform="translate(-265.606 -627.707)" fill="#30242a"/>
    <line id="Line_6" data-name="Line 6" x1="6.756" y1="0.094" transform="translate(384.271 307.251)" fill="none" stroke="#a15842" stroke-linecap="round" stroke-miterlimit="10" stroke-width="4"/>
    <path id="Path_39" data-name="Path 39" d="M692.192,630.42a155.858,155.858,0,0,0-20.149,6.34c-12.089,5.063-14.049,13.374-12.874,32.863" transform="translate(-296.14 -361.354)" fill="none" stroke="#a15842" stroke-linecap="round" stroke-miterlimit="10" stroke-width="4"/>
    <rect id="Rectangle_4" data-name="Rectangle 4" width="6.427" height="109.228" transform="translate(478.456 267.535)" fill="#ffbe21"/>
    <line id="Line_7" data-name="Line 7" x1="6.427" transform="translate(478.456 269.037)" fill="none" stroke="#a15842" stroke-miterlimit="10" stroke-width="4"/>
    <path id="Path_40" data-name="Path 40" d="M734.57,310.55c-3.663-.523-12.055,3.415-12.332,11.2s6.673,10.286,7.785,10.844l16.127-2.5,1.112-17.793Z" transform="translate(-342.917 -125.15)" fill="#a15842"/>
    <circle id="Ellipse_4" data-name="Ellipse 4" cx="12.534" cy="12.534" r="12.534" transform="translate(407.609 141)" fill="#a15842"/>
    <path id="Path_41" data-name="Path 41" d="M820.005,185.762c.764.353-5.67-14.915-8.954-12.534C807.96,175.476,816.125,183.972,820.005,185.762Z" transform="translate(-407.992 -23.609)" fill="#30242a"/>
    <path id="Path_42" data-name="Path 42" d="M848.485,200.534c.7.837,17.118-4.906,14.847-8.219C861.16,189.128,847.784,199.694,848.485,200.534Z" transform="translate(-436.116 -37.446)" fill="#30242a"/>
    <path id="Path_43" data-name="Path 43" d="M646.035,256.022s11.021-9.185,3.925-19.418c-4.516-6.523-16.8-3.925-16.8-3.925.3-3.582,1.272-13.9-6.489-19.573s-17.608-2.685-21.2,1.79-2.685,12.835-3.878,18.8-.4,10.027,3.281,11.937a11.335,11.335,0,0,0,7.285.688l-.419,6.3s-7.588.285-12.238,1.968c-11.2,4.056-30.89,31.871-30.89,31.871-12.332-.523-23.88-1.047-23.88-1.047l6.037,17.846s15.219,4.985,26.24,2.093c11.181-2.928,21.781-18.631,21.781-18.631l3.663,10.5-6.3,17.582h54.846l-9.185-16.271C643.413,284.1,646.035,256.022,646.035,256.022Z" transform="translate(-211.871 -50.942)" fill="#eaa58b"/>
    <path id="Path_44" data-name="Path 44" d="M628.411,370.4l-14.392,26.1-5.888-25.18a39.026,39.026,0,0,0-8.6,1.7c-11.231,4.066-30.916,31.882-30.916,31.882-12.332-.523-23.88-1.047-23.88-1.047l6.037,17.846s15.219,4.985,26.24,2.093c11.181-2.928,21.781-18.631,21.781-18.631l3.663,10.5-6.3,17.581h54.846l-9.185-16.268c1.57-14.434,4.187-42.513,4.187-42.513a25.45,25.45,0,0,0-7.871-3.14C635.008,370.6,631.564,371.025,628.411,370.4Z" transform="translate(-211.871 -169.373)" fill="#4756df"/>
    <path id="Path_45" data-name="Path 45" d="M544.214,502.071h45.447l-10.333-32.635a4.744,4.744,0,0,0-4.524-3.315H536.4a4.744,4.744,0,0,0-4.524,6.181l8.541,26.989A3.988,3.988,0,0,0,544.214,502.071Z" transform="translate(-202.206 -240.046)" fill="#30242a"/>
    <path id="Path_46" data-name="Path 46" d="M605.266,521.492c1.206-1.648,6.678,2.706,7.081,3.064.209-.358,3.059-4.71,5.147-3.064,1.813,1.429-2.172,7.811-3.232,9.438a.474.474,0,0,1-.7,0C611.624,529.3,604.219,522.921,605.266,521.492Z" transform="translate(-256.485 -280.655)" fill="#a15842"/>
    <ellipse id="Ellipse_5" data-name="Ellipse 5" cx="0.866" cy="2.651" rx="0.866" ry="2.651" transform="translate(353.007 237.137) rotate(-17.3)" fill="#a15842"/>
    <path id="Path_47" data-name="Path 47" d="M639.981,589.44a2.823,2.823,0,0,1-2.69,3.663H568.145a3.988,3.988,0,0,1-3.8-2.782l-.283-.892Z" transform="translate(-226.136 -331.09)" fill="#30242a"/>
    <rect id="Rectangle_5" data-name="Rectangle 5" width="202.587" height="6.56" transform="translate(293.37 262.024)" fill="#ffbe21"/>
    <path id="Path_48" data-name="Path 48" d="M880.753,694.456,884.96,678H860.416a24.623,24.623,0,0,0-23.853,18.52l-2.853,11.148h30.026a17.565,17.565,0,0,0,17.016-13.21Z" transform="translate(-425.227 -396.484)" fill="#ffb7d5"/>
    <line id="Line_8" data-name="Line 8" x1="0.971" y2="4.103" transform="translate(408.093 306.869)" fill="none" stroke="#a15842" stroke-linecap="round" stroke-linejoin="round" stroke-width="4"/>
    <path id="Path_49" data-name="Path 49" d="M523.459,501.83c-3.054,1.526-4.579,4.069-4.579,5.851a3.233,3.233,0,0,0,2.648,3.09s-1.976,3.106,1.46,4.563a3.133,3.133,0,0,0,3.2,3.2s-.424,2.494,2.915,2.729,6.775-1.507,7.065-2.635c.332-1.332-.565-2.447-2.988-2.8,0,0,3.271-1.528,2.753-3.457a2.8,2.8,0,0,0-2.729-1.884s2.117-1.269.987-3.14a2.943,2.943,0,0,0-3.292-1.222,2.185,2.185,0,0,0-.424-2.305c-1.178-1.177-6.241.309-6.241.309Z" transform="translate(-192.778 -266.412)" fill="#eaa58a"/>
    <path id="Path_50" data-name="Path 50" d="M546.9,558.008a38.163,38.163,0,0,0,7.97-2.878" transform="translate(-213.466 -305.765)" fill="none" stroke="#a15842" stroke-linecap="round" stroke-miterlimit="10" stroke-width="4"/>
    <path id="Path_51" data-name="Path 51" d="M534.55,539.994a40.817,40.817,0,0,0,10.828-4.744" transform="translate(-204.348 -291.087)" fill="none" stroke="#a15842" stroke-linecap="round" stroke-miterlimit="10" stroke-width="4"/>
    <path id="Path_52" data-name="Path 52" d="M528,523.886a33.807,33.807,0,0,0,9.9-4.8" transform="translate(-199.512 -279.156)" fill="none" stroke="#a15842" stroke-linecap="round" stroke-miterlimit="10" stroke-width="4"/>
    <path id="Path_53" data-name="Path 53" d="M814.082,236.6c-4.516-6.523-16.8-3.925-16.8-3.925.3-3.582,1.272-13.9-6.489-19.573s-17.608-2.685-21.2,1.79a14.7,14.7,0,0,0-2.591,6.987,18.645,18.645,0,0,0,5.875-.419c4.775,5.372,9.054,6.225,9.054,6.225,3.342-3.342,9.2-3.232,10.155,1.832.989,5.257-7.408,7.62-7.408,7.62s-.785,9.446,3.4,12.858a9.831,9.831,0,0,0,4.42,1.981c3.14.625,6.6.2,9.752.905a25.45,25.45,0,0,1,7.871,3.14,20.151,20.151,0,0,0,2.617-2.789C815.5,249.744,818.792,243.407,814.082,236.6Z" transform="translate(-375.98 -50.942)" fill="#a15842"/>
    <path id="Path_54" data-name="Path 54" d="M792.951,246.5a13.365,13.365,0,0,1-5.511,2.617" transform="translate(-391.064 -77.894)" fill="none" stroke="#eaa58b" stroke-linecap="round" stroke-miterlimit="10" stroke-width="4"/>
    <path id="Path_55" data-name="Path 55" d="M802.09,346.65a19.5,19.5,0,0,0,3.509-1.57" transform="translate(-401.881 -150.679)" fill="none" stroke="#a15842" stroke-linecap="round" stroke-miterlimit="10" stroke-width="4"/>
    <line id="Line_9" data-name="Line 9" y1="1.492" x2="2.386" transform="translate(409.027 179.429)" fill="none" stroke="#a15842" stroke-linecap="round" stroke-miterlimit="10" stroke-width="4"/>
    <path id="Path_56" data-name="Path 56" d="M783.46,317.857a2.415,2.415,0,0,0,3.093-.877" transform="translate(-388.126 -129.932)" fill="none" stroke="#a15842" stroke-linecap="round" stroke-miterlimit="10" stroke-width="4"/>
    <circle id="Ellipse_6" data-name="Ellipse 6" cx="0.895" cy="0.895" r="0.895" transform="translate(399.301 179.421)" fill="#30242a"/>
    <circle id="Ellipse_7" data-name="Ellipse 7" cx="0.895" cy="0.895" r="0.895" transform="translate(391.883 178.235)" fill="#30242a"/>
    <path id="Path_57" data-name="Path 57" d="M782.578,299.93a2.906,2.906,0,0,0-.23,1.379,1.507,1.507,0,0,0,.612.61" transform="translate(-387.281 -117.343)" fill="none" stroke="#a15842" stroke-linecap="round" stroke-miterlimit="10" stroke-width="4"/>
    <circle id="Ellipse_8" data-name="Ellipse 8" cx="3.135" cy="3.135" r="3.135" transform="translate(407.015 183.419)" fill="#f5ebdd"/>
    <ellipse id="Ellipse_9" data-name="Ellipse 9" cx="5.142" cy="4.629" rx="5.142" ry="4.629" transform="translate(385 182.913) rotate(-78.99)" fill="none" stroke="#30242a" stroke-linecap="round" stroke-miterlimit="10" stroke-width="4"/>
    <ellipse id="Ellipse_10" data-name="Ellipse 10" cx="5.142" cy="4.629" rx="5.142" ry="4.629" transform="translate(396.369 184.307) rotate(-78.99)" fill="none" stroke="#30242a" stroke-linecap="round" stroke-miterlimit="10" stroke-width="4"/>
    <line id="Line_10" data-name="Line 10" x2="1.808" y2="0.194" transform="translate(395.285 179.211)" fill="none" stroke="#30242a" stroke-linecap="round" stroke-miterlimit="10" stroke-width="4"/>
    <line id="Line_11" data-name="Line 11" x1="0.521" y2="3.349" transform="translate(421.383 182.082)" fill="none" stroke="#30242a" stroke-linecap="round" stroke-miterlimit="10" stroke-width="4"/>
    <line id="Line_12" data-name="Line 12" x2="2.533" y2="7.371" transform="translate(384.043 228.96)" fill="none" stroke="#30242a" stroke-linecap="round" stroke-linejoin="round" stroke-width="4"/>
    <line id="Line_13" data-name="Line 13" x1="6.659" transform="translate(390.766 245.754)" fill="none" stroke="#30242a" stroke-linecap="round" stroke-linejoin="round" stroke-width="4"/>
    <path id="Path_58" data-name="Path 58" d="M811.51,469.13l2.1,10.234v9.446" transform="translate(-408.836 -242.269)" fill="none" stroke="#30242a" stroke-linecap="round" stroke-linejoin="round" stroke-width="4"/>
    <path id="Path_59" data-name="Path 59" d="M756.088,379.51l3.985,9.017L755.35,388l16.794,25.191" transform="translate(-367.371 -176.099)" fill="none" stroke="#30242a" stroke-linecap="round" stroke-linejoin="round" stroke-width="4"/>
    <path id="Path_60" data-name="Path 60" d="M840.081,375.41l-6.764,9.567,6.3-.526L816.52,404.918" transform="translate(-412.535 -173.072)" fill="none" stroke="#30242a" stroke-linecap="round" stroke-linejoin="round" stroke-width="4"/>
    <line id="Line_14" data-name="Line 14" x1="5.032" y1="7.028" transform="translate(426.031 227.387)" fill="none" stroke="#30242a" stroke-linecap="round" stroke-linejoin="round" stroke-width="4"/>
    <path id="Path_61" data-name="Path 61" d="M912.281,584.448A62.774,62.774,0,0,1,901.66,580" transform="translate(-475.396 -324.127)" fill="none" stroke="#30242a" stroke-linecap="round" stroke-linejoin="round" stroke-width="4"/>
    <circle id="Ellipse_11" data-name="Ellipse 11" cx="5.147" cy="5.147" r="5.147" transform="translate(356.168 184.916)" fill="#ffb7d5"/>
    <rect id="Rectangle_6" data-name="Rectangle 6" width="7.311" height="2.7" rx="1.35" transform="translate(342.099 164.958) rotate(50.33)" fill="#4756df"/>
    <path id="Path_62" data-name="Path 62" d="M451.507,256.737l-3.014-3.637-54.184,44.928a2.316,2.316,0,0,0-.3,3.26l.06.073a2.313,2.313,0,0,0,3.258.3l16.94-14.052V336.92h4.728V283.689Z" transform="translate(-100.185 -82.767)" fill="#3ec1f3"/>
    <path id="Path_63" data-name="Path 63" d="M581.89,271l1.51,1.832a6.479,6.479,0,0,1,1.178,2.151" transform="translate(-239.3 -95.983)" fill="none" stroke="#4756df" stroke-miterlimit="10" stroke-width="4"/>
    <circle id="Ellipse_12" data-name="Ellipse 12" cx="6.168" cy="6.168" r="6.168" transform="translate(310.274 193.603)" fill="#4756df"/>
    <circle id="Ellipse_13" data-name="Ellipse 13" cx="2.371" cy="2.371" r="2.371" transform="translate(314.07 197.4)" fill="#3ec1f3"/>
    <line id="Line_15" data-name="Line 15" x1="7.889" y2="6.521" transform="translate(357.651 187.14)" fill="none" stroke="#a15842" stroke-miterlimit="10" stroke-width="4"/>
    <path id="Path_64" data-name="Path 64" d="M590.852,246.376a6.494,6.494,0,0,1-4.244-2.308l-2.093-2.53a4.37,4.37,0,0,0-6.149-.573h0a4.365,4.365,0,0,0-.573,6.147l2.093,2.538a6.492,6.492,0,0,1,1.473,4.584l-.523,7.651a17.508,17.508,0,0,0,2.711,10.634l.67,1.047,25.1-20.821-.9-.845a17.5,17.5,0,0,0-9.943-4.634Z" transform="translate(-235.532 -73.065)" fill="#3ec1f3"/>
    <path id="Path_65" data-name="Path 65" d="M445.083,573.43h-4.728l-6.989,1.9a6.183,6.183,0,0,0-4.556,5.966h27.815a6.183,6.183,0,0,0-4.558-5.966Z" transform="translate(-126.277 -319.277)" fill="#3ec1f3"/>
    <line id="Line_16" data-name="Line 16" x1="22.972" y2="18.987" transform="translate(346.052 175.977)" fill="none" stroke="#4756df" stroke-linecap="round" stroke-miterlimit="10" stroke-width="4"/>
    <line id="Line_17" data-name="Line 17" x2="4.843" transform="translate(313.963 253.612)" fill="none" stroke="#4756df" stroke-linecap="round" stroke-miterlimit="10" stroke-width="4"/>
    <line id="Line_18" data-name="Line 18" x2="25.821" transform="translate(303.452 258.754)" fill="none" stroke="#4756df" stroke-linecap="round" stroke-miterlimit="10" stroke-width="4"/>
    <path id="Path_66" data-name="Path 66" d="M979.661,785.687c.523-4.448.262-14.434-5.511-22.043s2.093-4.448,4.448-2.355c3.768,3.349,7.086,6.56,9.972,17.32Z" transform="translate(-527.387 -456.157)" fill="#30242a"/>
    <path id="Path_67" data-name="Path 67" d="M1266.98,1024.051h30.806v-1.007a5.356,5.356,0,0,0-5.356-5.354h-25.61Z" transform="translate(-745.006 -647.288)" fill="#a15842"/>
    <path id="Path_68" data-name="Path 68" d="M978.541,851.566l6.5,29.412h12.073v-1.832a4.461,4.461,0,0,0-4.448-4.461h0a67.189,67.189,0,0,0,9.708-8.986s6.3,7.675,15.221,6.361l.646,3.14a7.241,7.241,0,0,0,7.078,5.778h29.262c12.979,0,19.363-1.981,19.73-9.37a2.093,2.093,0,0,0-2.093-2.177h-8.169a2.251,2.251,0,0,1-1.756-.84l-3.478-4.315a8.572,8.572,0,0,0-8.784-2.923l-6.994,1.787s-12.393-17.809-23.618-30.178c-10.728-11.809-30.908-13.083-38.858,2.3A24.175,24.175,0,0,0,978.541,851.566Z" transform="translate(-531.715 -504.214)" fill="#a15842"/>
    <path id="Path_69" data-name="Path 69" d="M1234.623,1024.051v-1.007a5.354,5.354,0,0,0-5.356-5.354H1225.7" transform="translate(-714.645 -647.288)" fill="none" stroke="#30242a" stroke-miterlimit="10" stroke-width="4"/>
    <path id="Path_70" data-name="Path 70" d="M1073.17,897.183c1.832-2.18,8.083-10.205,7.635-18.055a19.418,19.418,0,0,0-5.511-12.858" transform="translate(-602.028 -535.49)" fill="none" stroke="#30242a" stroke-linecap="round" stroke-miterlimit="10" stroke-width="4"/>
    <path id="Path_71" data-name="Path 71" d="M1123.41,965.54s.335,6.209,1.007,10.846" transform="translate(-639.121 -608.784)" fill="none" stroke="#30242a" stroke-linecap="round" stroke-miterlimit="10" stroke-width="4"/>
    <line id="Line_19" data-name="Line 19" y2="2.426" transform="translate(459.098 374.076)" fill="none" stroke="#30242a" stroke-linecap="round" stroke-miterlimit="10" stroke-width="4"/>
    <line id="Line_20" data-name="Line 20" y2="2.426" transform="translate(461.984 374.076)" fill="none" stroke="#30242a" stroke-linecap="round" stroke-miterlimit="10" stroke-width="4"/>
    <line id="Line_21" data-name="Line 21" y2="2.426" transform="translate(514.205 374.076)" fill="none" stroke="#30242a" stroke-linecap="round" stroke-miterlimit="10" stroke-width="4"/>
    <line id="Line_22" data-name="Line 22" y2="2.426" transform="translate(517.091 374.076)" fill="none" stroke="#30242a" stroke-linecap="round" stroke-miterlimit="10" stroke-width="4"/>
    <circle id="Ellipse_14" data-name="Ellipse 14" cx="1.18" cy="1.18" r="1.18" transform="translate(523.651 364.63)" fill="#30242a"/>
    <path id="Path_72" data-name="Path 72" d="M1233.753,966.821v-.031l-7.083,1.832,6.994-1.787Z" transform="translate(-715.362 -609.707)" fill="#30242a"/>
    <path id="Path_73" data-name="Path 73" d="M1173.79,980.367c-2.052,1.047-4.951,3.1-4.71,6.2h11.393l2.394-3.776a4.341,4.341,0,0,1,3.663-2.018h.761l3.9-13.732-.058-.06-6.994,1.787-6.7,8.578A11.032,11.032,0,0,1,1173.79,980.367Z" transform="translate(-672.831 -609.847)" fill="#30242a"/>
    <path id="Path_74" data-name="Path 74" d="M1115.023,853.2s-3.169,10.969,7.065,15.111a12.7,12.7,0,0,0,12.489-1.57c-4.519-6.018-10.5-13.68-16.176-19.939a27.511,27.511,0,0,0-4.768-4.163C1112.085,844.749,1110.389,849.967,1115.023,853.2Z" transform="translate(-630.703 -518.043)" fill="#eaa58b"/>
    <circle id="Ellipse_15" data-name="Ellipse 15" cx="4.331" cy="4.331" r="4.331" transform="translate(453.849 334.452)" fill="#eaa58b"/>
    <path id="Path_75" data-name="Path 75" d="M1333.678,997.87h-1.57a3.025,3.025,0,0,0,2.959,3.611,2.916,2.916,0,0,0,.549-.052,11.242,11.242,0,0,0,.154-1.382,2.093,2.093,0,0,0-2.093-2.177Z" transform="translate(-793.168 -632.654)" fill="#30242a"/>
    <line id="Line_23" data-name="Line 23" y2="2.365" transform="translate(546.744 374.076)" fill="none" stroke="#30242a" stroke-linecap="round" stroke-miterlimit="10" stroke-width="4"/>
    <line id="Line_24" data-name="Line 24" y2="2.365" transform="translate(549.63 374.076)" fill="none" stroke="#30242a" stroke-linecap="round" stroke-miterlimit="10" stroke-width="4"/>
    <path id="Path_76" data-name="Path 76" d="M1301.57,1023.641c6.416-.646,10.242-2.384,11.631-6.081" transform="translate(-770.662 -647.192)" fill="none" stroke="#30242a" stroke-linecap="round" stroke-linejoin="round" stroke-width="4"/>
    <path id="Path_77" data-name="Path 77" d="M808.7,513.972a62.1,62.1,0,0,0-9.711-.107c-4.626.379-10.846,1.591-13.345,2.8s-12.068,5.477-9.491,6.908c2.355,1.308,7.3-.659,7.3-.659s-4.93,4.532-5.778,6.429,1.955,2.962,1.955,2.962c.738,3.239,4.04,1.847,4.04,1.847,2.08,4.425,13.319-5.163,13.319-5.163a27.642,27.642,0,0,0,8.015-.338s1.423.8,3.708,1.908Z" transform="translate(-382.412 -275.194)" fill="#eaa58a"/>
    <path id="Path_78" data-name="Path 78" d="M929.847,441.785c20.994-9.972-9.438-47.231-20.206-55.9L903.607,410.3l7.609,10.5c-3.334-.576-6.521-.971-9.446-1.2v16.587C908.432,439.414,922.431,445.318,929.847,441.785Z" transform="translate(-475.478 -180.81)" fill="#4756df"/>
    <path id="Path_79" data-name="Path 79" d="M801.43,534.274c1.863-1.541,4.956-4.032,7.264-5.534" transform="translate(-401.394 -286.281)" fill="none" stroke="#a15842" stroke-linecap="round" stroke-miterlimit="10" stroke-width="4"/>
    <path id="Path_80" data-name="Path 80" d="M803.175,542.81a82.473,82.473,0,0,0-12.665,10.54" transform="translate(-393.331 -296.669)" fill="none" stroke="#a15842" stroke-linecap="round" stroke-miterlimit="10" stroke-width="4"/>
    <path id="Path_81" data-name="Path 81" d="M817.832,557.82a100.055,100.055,0,0,0-10.692,8.944" transform="translate(-405.609 -307.751)" fill="none" stroke="#a15842" stroke-linecap="round" stroke-miterlimit="10" stroke-width="4"/>
    <path id="Path_82" data-name="Path 82" d="M1061.035,546.5a1.5,1.5,0,0,1,1.5,1.5v.222a1.5,1.5,0,0,1-1.5,1.5h-7.711V546.5h7.711m0-2.093h-9.522a.282.282,0,0,0-.283.285v6.843a.283.283,0,0,0,.283.283h9.522a3.59,3.59,0,0,0,3.59-3.6v-.23a3.59,3.59,0,0,0-3.59-3.59Z" transform="translate(-585.829 -297.843)" fill="#3ec1f3"/>
    <path id="Path_83" data-name="Path 83" d="M1012.531,522.585a13.647,13.647,0,0,1-11.4-6.215l5.233,22.8h12.319l5.233-22.8A13.384,13.384,0,0,1,1012.531,522.585Z" transform="translate(-548.838 -277.147)" fill="#3ec1f3"/>
    <path id="Path_84" data-name="Path 84" d="M1012.531,522.585a13.384,13.384,0,0,0,11.4-6.215h-22.8A13.647,13.647,0,0,0,1012.531,522.585Z" transform="translate(-548.838 -277.147)" fill="#30242a"/>
  </g>
</svg>
