<svg xmlns="http://www.w3.org/2000/svg" width="295" height="233.944" viewBox="0 0 295 233.944">
  <g id="Layer_12" data-name="Layer 12" transform="translate(-224.47 -172)">
    <rect id="Rectangle_14" data-name="Rectangle 14" width="41.141" height="60.86" transform="translate(337.183 203.647)" fill="#3ec1f3"/>
    <path id="Path_157" data-name="Path 157" d="M562.139,291.18h12.053v60.86H547.17V306.149A14.969,14.969,0,0,1,562.139,291.18Z" transform="translate(-237.009 -87.533)" fill="#3ec1f3"/>
    <ellipse id="Ellipse_32" data-name="Ellipse 32" cx="5.972" cy="6.527" rx="5.972" ry="6.527" transform="translate(316.969 239.525)" fill="#f4e6d8"/>
    <path id="Path_158" data-name="Path 158" d="M580.468,451.4h-16.8a8.394,8.394,0,0,0,5.223,7.775V461.3h6.352v-2.124A8.394,8.394,0,0,0,580.468,451.4Z" transform="translate(-249.128 -205.207)" fill="#4756df"/>
    <line id="Line_40" data-name="Line 40" y1="10.887" x2="26.82" transform="translate(309.85 219.001)" fill="none" stroke="#4756df" stroke-linecap="round" stroke-miterlimit="10" stroke-width="4"/>
    <line id="Line_41" data-name="Line 41" y2="60.86" transform="translate(336.697 203.647)" fill="none" stroke="#4756df" stroke-miterlimit="10" stroke-width="4"/>
    <path id="Path_159" data-name="Path 159" d="M530.968,788.211V764.843L516.849,750.48h-39.68L463.05,764.843v21.666H413.633V777.5h0c-15.824-1.7-10.956-13.389-19.719-13.389H378.334a5.913,5.913,0,0,0-3.205.929l-21.995-13.593H330.5l-28.36,17.526h.061v22.067L283.15,802.811v20.205H545.087V802.569Z" transform="translate(-43.098 -424.868)" fill="#f5ebdd"/>
    <path id="Path_160" data-name="Path 160" d="M1262.908,1000.1H1247.57c0-4.233,3.433-8.519,7.669-8.519S1262.908,995.866,1262.908,1000.1Z" transform="translate(-751.423 -601.946)" fill="#ffb7d5"/>
    <path id="Path_161" data-name="Path 161" d="M1303.884,1006.158H1292.49c0-3.144,2.552-6.328,5.7-6.328S1303.884,1003.014,1303.884,1006.158Z" transform="translate(-784.414 -608.005)" fill="#ffb7d5"/>
    <path id="Path_162" data-name="Path 162" d="M492.47,634.238c7.435-2.3,16.995-5.611,46.085,18.179s40.1,8.232,37.12,4.636c-2.39-2.894-15.736,4.915-5.8,15.444,9.44,10.011,37.107.435,44.694-5.693,10.8-8.72,26.254-15.579,39.879-16.073" transform="translate(-196.834 -338.319)" fill="none" stroke="#ffb7d5" stroke-linecap="round" stroke-linejoin="round" stroke-width="4" stroke-dasharray="12"/>
    <line id="Line_42" data-name="Line 42" x1="28.363" y1="17.526" transform="translate(287.398 326.583)" fill="none" stroke="#ffb7d5" stroke-linecap="round" stroke-linejoin="round" stroke-width="4"/>
    <path id="Path_163" data-name="Path 163" d="M355.88,820.14h56.457v53.778" transform="translate(-96.515 -476.031)" fill="none" stroke="#ffb7d5" stroke-linecap="round" stroke-linejoin="round" stroke-width="4"/>
    <line id="Line_43" data-name="Line 43" y1="31.552" x2="0.266" transform="translate(258.369 366.436)" fill="none" stroke="#ffb7d5" stroke-linecap="round" stroke-linejoin="round" stroke-width="4"/>
    <line id="Line_44" data-name="Line 44" x2="17.991" transform="translate(240.318 377.947)" fill="none" stroke="#ffb7d5" stroke-linecap="round" stroke-linejoin="round" stroke-width="4"/>
    <line id="Line_45" data-name="Line 45" x2="56.72" transform="translate(258.675 374.174)" fill="none" stroke="#ffb7d5" stroke-linecap="round" stroke-linejoin="round" stroke-width="4"/>
    <line id="Line_46" data-name="Line 46" x2="40.169" transform="translate(419.342 382.209)" fill="none" stroke="#ffb7d5" stroke-linecap="round" stroke-linejoin="round" stroke-width="4"/>
    <line id="Line_47" data-name="Line 47" x2="13.235" transform="translate(315.761 344.109)" fill="none" stroke="#ffb7d5" stroke-linecap="round" stroke-linejoin="round" stroke-width="4"/>
    <path id="Path_164" data-name="Path 164" d="M961.63,804.56h39.415v57.915" transform="translate(-541.412 -464.588)" fill="none" stroke="#ffb7d5" stroke-linecap="round" stroke-linejoin="round" stroke-width="4"/>
    <path id="Path_165" data-name="Path 165" d="M1110.06,862.209V804.56h27.707" transform="translate(-650.427 -464.588)" fill="none" stroke="#ffb7d5" stroke-linecap="round" stroke-linejoin="round" stroke-width="4"/>
    <line id="Line_48" data-name="Line 48" x2="15.072" transform="translate(355.197 353.117)" fill="none" stroke="#ffb7d5" stroke-linecap="round" stroke-linejoin="round" stroke-width="4"/>
    <path id="Path_166" data-name="Path 166" d="M1163.23,966.841V946.66h27.821" transform="translate(-689.478 -568.954)" fill="none" stroke="#ffb7d5" stroke-linecap="round" stroke-linejoin="round" stroke-width="4"/>
    <line id="Line_49" data-name="Line 49" x1="13.965" y2="14.207" transform="translate(459.633 325.766)" fill="none" stroke="#ffb7d5" stroke-linecap="round" stroke-linejoin="round" stroke-width="4"/>
    <line id="Line_50" data-name="Line 50" x2="14.119" y2="14.363" transform="translate(459.633 363.343)" fill="none" stroke="#ffb7d5" stroke-linecap="round" stroke-linejoin="round" stroke-width="4"/>
    <line id="Line_51" data-name="Line 51" x1="27.707" transform="translate(459.755 362.735)" fill="none" stroke="#ffb7d5" stroke-linecap="round" stroke-linejoin="round" stroke-width="4"/>
    <path id="Path_167" data-name="Path 167" d="M588.179,803.64c-8.763,0-3.9,11.684-19.719,13.389H607.9C592.072,815.327,596.942,803.64,588.179,803.64Z" transform="translate(-252.646 -463.912)" fill="none" stroke="#ffb7d5" stroke-linecap="round" stroke-linejoin="round" stroke-width="4"/>
    <path id="Path_168" data-name="Path 168" d="M568.46,898.572v-44.5H607.9v44.768" transform="translate(-252.646 -500.951)" fill="none" stroke="#ffb7d5" stroke-linecap="round" stroke-linejoin="round" stroke-width="4"/>
    <path id="Path_169" data-name="Path 169" d="M716.77,934.252v-31.6h64.147v31.868" transform="translate(-361.573 -536.631)" fill="none" stroke="#ffb7d5" stroke-linecap="round" stroke-linejoin="round" stroke-width="4"/>
    <line id="Line_52" data-name="Line 52" y1="4.275" x2="14.817" transform="translate(355.311 361.149)" fill="none" stroke="#ffb7d5" stroke-linecap="round" stroke-linejoin="round" stroke-width="4"/>
    <path id="Path_170" data-name="Path 170" d="M780.917,887.15v4.116H716.77" transform="translate(-361.573 -525.247)" fill="none" stroke="#ffb7d5" stroke-linecap="round" stroke-linejoin="round" stroke-width="4"/>
    <path id="Path_171" data-name="Path 171" d="M752.715,930.16h.064a4.344,4.344,0,0,1,4.344,4.344v20.487H748.36V934.5a4.344,4.344,0,0,1,4.355-4.344Z" transform="translate(-384.774 -556.836)" fill="#ffb7d5"/>
    <path id="Path_172" data-name="Path 172" d="M900.344,930.16h.074a4.344,4.344,0,0,1,4.344,4.344v20.487H896V934.5a4.344,4.344,0,0,1,4.344-4.344Z" transform="translate(-493.21 -556.836)" fill="#ffb7d5"/>
    <path id="Path_173" data-name="Path 173" d="M826.544,930.16h.074a4.344,4.344,0,0,1,4.344,4.344v20.487H822.2V934.5a4.344,4.344,0,0,1,4.344-4.344Z" transform="translate(-439.007 -556.836)" fill="#ffb7d5"/>
    <path id="Path_174" data-name="Path 174" d="M1206.084,967.74h.074a4.344,4.344,0,0,1,4.344,4.344v10.505h-8.763V972.084A4.344,4.344,0,0,1,1206.084,967.74Z" transform="translate(-717.762 -584.436)" fill="#ffb7d5"/>
    <path id="Path_175" data-name="Path 175" d="M386.712,967.74h.066a4.344,4.344,0,0,1,4.344,4.344v10.505H382.36V972.084a4.344,4.344,0,0,1,4.344-4.344Z" transform="translate(-115.963 -584.436)" fill="#ffb7d5"/>
    <path id="Path_176" data-name="Path 176" d="M512.339,967.74h.074a4.344,4.344,0,0,1,4.35,4.344v10.505H508V972.084A4.344,4.344,0,0,1,512.339,967.74Z" transform="translate(-208.24 -584.436)" fill="#ffb7d5"/>
    <path id="Path_177" data-name="Path 177" d="M449.524,967.74h.074a4.344,4.344,0,0,1,4.344,4.344v10.505H445.18V972.084A4.344,4.344,0,0,1,449.524,967.74Z" transform="translate(-162.102 -584.436)" fill="#ffb7d5"/>
    <rect id="Rectangle_15" data-name="Rectangle 15" width="8.763" height="14.849" transform="translate(266.402 351.9)" fill="#ffb7d5"/>
    <rect id="Rectangle_16" data-name="Rectangle 16" width="8.763" height="14.849" transform="translate(299.754 351.9)" fill="#ffb7d5"/>
    <rect id="Rectangle_17" data-name="Rectangle 17" width="8.763" height="14.849" transform="translate(283.078 351.9)" fill="#ffb7d5"/>
    <rect id="Rectangle_18" data-name="Rectangle 18" width="7.281" height="10.954" transform="translate(324.962 360.663)" fill="#ffb7d5"/>
    <rect id="Rectangle_19" data-name="Rectangle 19" width="7.281" height="10.954" transform="translate(338.818 360.663)" fill="#ffb7d5"/>
    <rect id="Rectangle_20" data-name="Rectangle 20" width="7.281" height="10.954" transform="translate(324.962 379.897)" fill="#ffb7d5"/>
    <rect id="Rectangle_21" data-name="Rectangle 21" width="7.281" height="10.954" transform="translate(338.818 379.897)" fill="#ffb7d5"/>
    <rect id="Rectangle_22" data-name="Rectangle 22" width="7.281" height="10.954" transform="translate(428.912 346.058)" fill="#ffb7d5"/>
    <rect id="Rectangle_23" data-name="Rectangle 23" width="7.281" height="10.954" transform="translate(442.768 346.058)" fill="#ffb7d5"/>
    <rect id="Rectangle_24" data-name="Rectangle 24" width="7.281" height="10.954" transform="translate(470.764 346.058)" fill="#ffb7d5"/>
    <rect id="Rectangle_25" data-name="Rectangle 25" width="7.281" height="10.954" transform="translate(428.912 365.289)" fill="#ffb7d5"/>
    <rect id="Rectangle_26" data-name="Rectangle 26" width="7.281" height="10.954" transform="translate(442.768 365.289)" fill="#ffb7d5"/>
    <path id="Path_178" data-name="Path 178" d="M452.552,564.268c0,5.478-5.842,11.806-8.158,11.806s-8.155-6.328-8.155-11.806a8.157,8.157,0,1,1,16.314,0Z" transform="translate(-155.536 -282.112)" fill="#ffb7d5"/>
    <circle id="Ellipse_33" data-name="Ellipse 33" cx="2.557" cy="2.557" r="2.557" transform="translate(286.302 279.598)" fill="#fff"/>
    <path id="Path_179" data-name="Path 179" d="M1123.62,632.025c0,5.478-5.842,11.806-8.155,11.806s-8.155-6.328-8.155-11.806a8.155,8.155,0,1,1,16.31,0Z" transform="translate(-648.408 -331.879)" fill="#ffb7d5"/>
    <circle id="Ellipse_34" data-name="Ellipse 34" cx="2.557" cy="2.557" r="2.557" transform="translate(464.5 297.589)" fill="#fff"/>
    <path id="Path_180" data-name="Path 180" d="M254.54,1000.1h15.338c0-4.233-3.433-8.519-7.669-8.519S254.54,995.866,254.54,1000.1Z" transform="translate(-22.085 -601.946)" fill="#ffb7d5"/>
    <path id="Path_181" data-name="Path 181" d="M224.47,1006.158h11.394c0-3.144-2.552-6.328-5.7-6.328S224.47,1003.014,224.47,1006.158Z" transform="translate(0 -608.005)" fill="#ffb7d5"/>
    <path id="Path_182" data-name="Path 182" d="M547.349,456c-18.9,11.554-25.471,43.738-29.475,55.48-4.331,12.7-13.869,12.409-24.937,16.105s-10.656,11.756-10.656,11.756a73.668,73.668,0,0,0-7.4,5.765l14.013,17.908c3.306-2.281,8.213-5.141,14.945-9.206,13.9-8.4,26.35-16.286,34.382-25.049s29.143-47.187,29.143-47.187Z" transform="translate(-183.915 -208.586)" fill="#4856df"/>
    <path id="Path_183" data-name="Path 183" d="M455.945,809.476,441.93,791.57a63.217,63.217,0,0,0-11.91,13.978l19.759,25.242c2.783-5.045.571-12.146.8-15.245C450.727,813.679,452.421,811.908,455.945,809.476Z" transform="translate(-150.968 -455.047)" fill="#30242a"/>
    <path id="Path_184" data-name="Path 184" d="M424.24,847l19.427,24.82a8.957,8.957,0,0,0,1.859-2.358L425.77,844.22A29.331,29.331,0,0,0,424.24,847Z" transform="translate(-146.722 -493.716)" fill="#3ec1f3"/>
    <line id="Line_53" data-name="Line 53" x2="3.763" y2="2.095" transform="translate(297.792 355.49)" fill="#f5ebdd" stroke="#fff" stroke-linecap="round" stroke-linejoin="round" stroke-width="4"/>
    <line id="Line_54" data-name="Line 54" x2="3.771" y2="0.855" transform="translate(296.116 359.277)" fill="#f5ebdd" stroke="#fff" stroke-linecap="round" stroke-linejoin="round" stroke-width="4"/>
    <line id="Line_55" data-name="Line 55" x1="6.713" y2="5.247" transform="translate(296.132 337.89)" fill="none" stroke="#3ec1f3" stroke-linecap="round" stroke-miterlimit="10" stroke-width="4"/>
    <line id="Line_56" data-name="Line 56" x1="6.713" y2="5.247" transform="translate(292.733 333.543)" fill="none" stroke="#3ec1f3" stroke-linecap="round" stroke-miterlimit="10" stroke-width="4"/>
    <line id="Line_57" data-name="Line 57" x1="6.713" y2="5.247" transform="translate(299.531 342.237)" fill="none" stroke="#3ec1f3" stroke-linecap="round" stroke-miterlimit="10" stroke-width="4"/>
    <line id="Line_58" data-name="Line 58" x1="6.713" y2="5.247" transform="translate(302.93 346.584)" fill="none" stroke="#3ec1f3" stroke-linecap="round" stroke-miterlimit="10" stroke-width="4"/>
    <line id="Line_59" data-name="Line 59" x2="14.73" y2="18.843" transform="translate(297.757 330.986)" fill="none" stroke="#3ec1f3" stroke-linecap="round" stroke-miterlimit="10" stroke-width="4"/>
    <path id="Path_185" data-name="Path 185" d="M745.73,599.186a108.648,108.648,0,0,1-8.71-16.376" transform="translate(-376.446 -301.722)" fill="none" stroke="#30242a" stroke-linecap="round" stroke-linejoin="round" stroke-width="4"/>
    <path id="Path_186" data-name="Path 186" d="M1004.659,326.758l.035-.088-.064.061Z" transform="translate(-572.994 -113.598)" fill="none"/>
    <circle id="Ellipse_35" data-name="Ellipse 35" cx="2.313" cy="2.313" r="2.313" transform="translate(372.237 172)" fill="#4756df"/>
    <path id="Path_187" data-name="Path 187" d="M768.943,239.772l-.159-2.687a11.963,11.963,0,0,0,7.023-.911l-7.023-5.653s2.432-.972.972-6.086l7.818-2.841c-.412-1.062-.685-3.622-1.474-6.373l-4.655,2.026a15.112,15.112,0,0,1-4.551,5.266,14.6,14.6,0,0,0-2.621-2.146c-.127-.082-.266-.159-.393-.236h-.013c-.13-.074-.266-.146-.4-.215h-.021c-.133-.066-.266-.133-.4-.191l-.027-.048c-.13-.061-.266-.114-.4-.167h-.037c-.135-.048-.266-.093-.4-.135h-.045c-.133-.04-.266-.074-.4-.1h-.048c-.135-.029-.266-.05-.4-.066h-.053c-.133-.013-.266-.021-.4-.024a3.819,3.819,0,0,0-3.269,1.8,4.558,4.558,0,0,0-.887,2.682c.019,2.855,2.674,5.576,5.045,6.373-1.875,3.954-7.932,6.421-10.255,7.241.074.906.146,1.747.21,2.5Z" transform="translate(-387.051 -31.743)" fill="#eaa58b"/>
    <path id="Path_188" data-name="Path 188" d="M906.826,316.538c-1.1,0-1.63-.892-1.187-1.992l3.718-9.18-.029-.027.064-.061a29.357,29.357,0,0,0,2.863-3.107c1.678-2.138,2.183-3.691,1.593-4.326a1.02,1.02,0,0,0-.632-.3,2.051,2.051,0,0,0-.728.042c-1.9.414-5.144,3-8.763,7.26-4.379,5.149-12.895,15.338-12.895,15.338-.887-.677-2.175-1.824-3.718-3.208L874.86,332.733a55.846,55.846,0,0,0,8.375,5.393,9.007,9.007,0,0,1,16.729-1.049c7.382-5.515,13.214-15.356,15.946-20.54Z" transform="translate(-477.683 -92.199)" fill="#eaa58b"/>
    <path id="Path_189" data-name="Path 189" d="M832.014,320.51H828.27c7.141,4.3,3.983,12.417,3.983,12.417s9.753,6.817,3.168,15.094a7.482,7.482,0,0,0,1.216-1.7s1.572,1.445,3.983,3.293l12.252-15.752C847.182,328.779,837.944,320.51,832.014,320.51Z" transform="translate(-443.465 -109.074)" fill="#ffb7d5"/>
    <path id="Path_190" data-name="Path 190" d="M690.112,369.008s-7.17,5.977-2.323,13.981l2.552-14.339Z" transform="translate(-339.053 -144.431)" fill="#ff7235"/>
    <path id="Path_191" data-name="Path 191" d="M752.21,307.68v.088l.308-.088Z" transform="translate(-387.602 -99.651)" fill="#ff7235"/>
    <path id="Path_192" data-name="Path 192" d="M759.219,253.373c-2.361-.8-5.016-3.51-5.045-6.373l-6.083,2.655c.236,3.351.579,7.576.863,10.959C751.3,259.794,757.36,257.327,759.219,253.373Z" transform="translate(-384.576 -55.084)" fill="#30242a"/>
    <path id="Path_193" data-name="Path 193" d="M816.7,248.17l7.024,5.653a6.408,6.408,0,0,0,3.1-3.24c1.036-2.592.366-4.822-.441-7.717,0,0,2.058-1.378,1.737-2.655-.266-1.038-2.61-.895-2.61-.895l-.024-.066-7.818,2.841C819.132,247.2,816.7,248.17,816.7,248.17Z" transform="translate(-434.967 -49.392)" fill="#30242a"/>
    <path id="Path_194" data-name="Path 194" d="M802.338,228.1a15.113,15.113,0,0,0,4.551-5.266l-7.17,3.12A14.608,14.608,0,0,1,802.338,228.1Z" transform="translate(-422.496 -37.332)" fill="#30242a"/>
    <path id="Path_195" data-name="Path 195" d="M798.193,233.69h-.013Z" transform="translate(-421.365 -45.309)" fill="#4756df"/>
    <path id="Path_196" data-name="Path 196" d="M796.631,232.85h-.021Z" transform="translate(-420.212 -44.692)" fill="#4756df"/>
    <path id="Path_197" data-name="Path 197" d="M795.027,232.024,795,232Z" transform="translate(-419.03 -44.067)" fill="#4756df"/>
    <path id="Path_198" data-name="Path 198" d="M793.367,231.41h0Z" transform="translate(-417.803 -43.634)" fill="#4756df"/>
    <path id="Path_199" data-name="Path 199" d="M788.273,230.14h0Z" transform="translate(-414.05 -42.701)" fill="#4756df"/>
    <path id="Path_200" data-name="Path 200" d="M754.42,195.1a3.819,3.819,0,0,1,3.269-1.8h-.026c-.667-7.369.977-11.376,2.2-13.277a23.365,23.365,0,0,0-3.452.781c-8.447,2.557-9.416,10.887-9.18,15.842.045.993.13,2.316.234,3.808l6.084-2.655A4.557,4.557,0,0,1,754.42,195.1Z" transform="translate(-383.919 -5.898)" fill="#4756df"/>
    <path id="Path_201" data-name="Path 201" d="M791.685,230.85h0Z" transform="translate(-416.562 -43.223)" fill="#4756df"/>
    <path id="Path_202" data-name="Path 202" d="M789.988,230.42h0Z" transform="translate(-415.313 -42.907)" fill="#4756df"/>
    <path id="Path_203" data-name="Path 203" d="M797.086,233.065c-.13-.074-.266-.146-.4-.215C796.825,232.919,796.956,232.991,797.086,233.065Z" transform="translate(-420.271 -44.692)" fill="#3ec1f3"/>
    <path id="Path_204" data-name="Path 204" d="M798.623,233.926c-.127-.082-.266-.159-.393-.236C798.363,233.772,798.5,233.844,798.623,233.926Z" transform="translate(-421.402 -45.309)" fill="#3ec1f3"/>
    <path id="Path_205" data-name="Path 205" d="M790.524,230.524c-.133-.04-.266-.074-.4-.1C790.255,230.449,790.391,230.484,790.524,230.524Z" transform="translate(-415.445 -42.907)" fill="#3ec1f3"/>
    <path id="Path_206" data-name="Path 206" d="M795.5,232.281c-.133-.066-.266-.133-.4-.191C795.235,232.148,795.368,232.215,795.5,232.281Z" transform="translate(-419.103 -44.133)" fill="#3ec1f3"/>
    <path id="Path_207" data-name="Path 207" d="M787.111,230.049c-.133-.013-.265-.021-.4-.024A2.535,2.535,0,0,1,787.111,230.049Z" transform="translate(-412.941 -42.615)" fill="#3ec1f3"/>
    <path id="Path_208" data-name="Path 208" d="M788.824,230.206c-.135-.029-.266-.05-.4-.066C788.555,230.156,788.688,230.177,788.824,230.206Z" transform="translate(-414.197 -42.701)" fill="#3ec1f3"/>
    <path id="Path_209" data-name="Path 209" d="M792.214,230.985c-.135-.048-.266-.093-.4-.135C791.945,230.89,792.078,230.938,792.214,230.985Z" transform="translate(-416.687 -43.223)" fill="#3ec1f3"/>
    <path id="Path_210" data-name="Path 210" d="M793.891,231.537c-.13-.061-.266-.114-.4-.167C793.625,231.434,793.756,231.487,793.891,231.537Z" transform="translate(-417.921 -43.605)" fill="#3ec1f3"/>
    <path id="Path_211" data-name="Path 211" d="M786.185,192.675h.026a2.275,2.275,0,0,1,.4.024h.053c.135.016.266.037.4.066h.048c.135.029.266.064.4.1h.045c.135.042.266.088.4.135h.037c.135.053.266.106.4.167l.032.013c.135.058.266.125.4.191h.021c.135.069.266.141.4.215h.013c.133.077.266.154.393.236l7.17-3.12,4.655-2.026c-1.421-4.955-4.514-10.553-13.11-9.331C787.162,181.3,785.518,185.312,786.185,192.675Z" transform="translate(-412.442 -5.274)" fill="#3ec1f3"/>
    <path id="Path_212" data-name="Path 212" d="M914.9,426.86a9.01,9.01,0,0,0-8.574,6.251c3.909,1.986,8.043,3.208,11.254,2.026a22,22,0,0,0,5.486-3.075A9,9,0,0,0,914.9,426.86Z" transform="translate(-500.797 -187.184)" fill="#ca7358"/>
    <path id="Path_213" data-name="Path 213" d="M728.549,354.3c8.763-5.722,2.655-15.465,2.177-15.7,6.572-8.277-3.165-15.093-3.165-15.093s3.155-8.115-3.983-12.417h-2.714l-.2-3.407H703.694l-.308.088.287,3.319H698.2l-8.139,12.786-2.552,14.339.13.215q-.13.242-.266.486a12.7,12.7,0,0,0-1.466,8.232,11.8,11.8,0,0,0,4.644,7.14h38Z" transform="translate(-338.771 -99.651)" fill="#ff7235"/>
    <path id="Path_214" data-name="Path 214" d="M703.94,487.507h37.975V483.24H703.94v4.267Z" transform="translate(-352.15 -228.592)" fill="#30242a"/>
    <line id="Line_60" data-name="Line 60" x2="40.968" transform="translate(347.823 223.853)" fill="none" stroke="#a15842" stroke-linecap="round" stroke-miterlimit="10" stroke-width="4"/>
    <line id="Line_61" data-name="Line 61" x2="43.369" transform="translate(348.8 238.946)" fill="none" stroke="#a15842" stroke-linecap="round" stroke-miterlimit="10" stroke-width="4"/>
    <line id="Line_62" data-name="Line 62" x1="0.09" y1="1.439" transform="translate(382.614 211.701)" fill="none" stroke="#a15842" stroke-linecap="round" stroke-miterlimit="10" stroke-width="4"/>
    <line id="Line_63" data-name="Line 63" x1="0.242" y1="3.896" transform="translate(377.837 208.515)" fill="none" stroke="#a15842" stroke-linecap="round" stroke-miterlimit="10" stroke-width="4"/>
    <line id="Line_64" data-name="Line 64" x1="0.242" y1="3.896" transform="translate(374.186 208.515)" fill="none" stroke="#a15842" stroke-linecap="round" stroke-miterlimit="10" stroke-width="4"/>
    <line id="Line_65" data-name="Line 65" x1="0.242" y1="3.896" transform="translate(370.535 208.515)" fill="none" stroke="#a15842" stroke-linecap="round" stroke-miterlimit="10" stroke-width="4"/>
    <line id="Line_66" data-name="Line 66" x1="2.91" y2="3.614" transform="translate(409.726 227.785)" fill="none" stroke="#a15842" stroke-linecap="round" stroke-linejoin="round" stroke-width="4"/>
    <path id="Path_215" data-name="Path 215" d="M803.86,296.68a15.379,15.379,0,0,0,3.325.762" transform="translate(-425.537 -91.572)" fill="none" stroke="#a15842" stroke-linecap="round" stroke-miterlimit="10" stroke-width="4"/>
    <path id="Path_216" data-name="Path 216" d="M1015.68,290.763a1.228,1.228,0,0,0,1.346,1.219h7.943a3.322,3.322,0,0,0,2.8-1.994l2.422-6c.444-1.1-.088-1.992-1.187-1.992h-7.945a3.317,3.317,0,0,0-2.8,1.992l-.988,2.446C1017.863,287.075,1017.358,288.639,1015.68,290.763Z" transform="translate(-581.109 -80.79)" fill="#f5ebdd"/>
    <path id="Path_217" data-name="Path 217" d="M1013.284,267.34h-2.146l-.189.465a2.061,2.061,0,0,1-1.739,1.24h-4.095c-.682,0-1.014-.555-.738-1.24l.188-.465h-2.146a3.318,3.318,0,0,0-2.8,1.994l-2.459,6.084a2.049,2.049,0,0,1,.728-.042,1.02,1.02,0,0,1,.632.3l.988-2.446a3.317,3.317,0,0,1,2.8-1.992h7.945c1.1,0,1.63.892,1.187,1.992l-2.422,6a3.322,3.322,0,0,1-2.8,1.994h-7.942A1.225,1.225,0,0,1,996.93,280a29.37,29.37,0,0,1-2.87,3.1l-.035.088-3.718,9.18c-.443,1.1.088,1.992,1.187,1.992h10.866a3.317,3.317,0,0,0,2.8-1.992l9.294-23.036C1014.918,268.232,1014.387,267.34,1013.284,267.34Zm-10.622,23.368a2,2,0,0,1-.677.839,1.8,1.8,0,0,1-1.03.377H994.89c-.674,0-1-.544-.728-1.216a2.031,2.031,0,0,1,1.71-1.216h6.086c.659,0,.983.547.712,1.219Z" transform="translate(-562.359 -70.023)" fill="#4756df"/>
    <path id="Path_218" data-name="Path 218" d="M1012.748,350.77h-6.086a2.031,2.031,0,0,0-1.71,1.216c-.266.672.053,1.216.728,1.216h6.086a1.8,1.8,0,0,0,1.03-.377,2,2,0,0,0,.677-.839C1013.744,351.314,1013.42,350.77,1012.748,350.77Z" transform="translate(-573.161 -131.299)" fill="#3ec1f3"/>
    <path id="Path_219" data-name="Path 219" d="M1044.2,269.045h4.095a2.06,2.06,0,0,0,1.739-1.24l.189-.465h-6.572l-.188.465C1043.185,268.49,1043.517,269.045,1044.2,269.045Z" transform="translate(-601.442 -70.023)" fill="#3ec1f3"/>
    <line id="Line_67" data-name="Line 67" x1="16.31" y2="7.302" transform="translate(378.812 181.252)" fill="none" stroke="#30242a" stroke-linecap="round" stroke-linejoin="round" stroke-width="4"/>
    <path id="Path_220" data-name="Path 220" d="M840.89,260.021a2.1,2.1,0,0,1-2.35-1.511" transform="translate(-451.008 -63.538)" fill="none" stroke="#000" stroke-linecap="round" stroke-miterlimit="10" stroke-width="4"/>
    <circle id="Ellipse_36" data-name="Ellipse 36" cx="0.786" cy="0.786" r="0.786" transform="translate(386.582 187.967)" fill="#30242a"/>
    <line id="Line_68" data-name="Line 68" x2="2.855" y2="1.816" transform="translate(373.875 192.319)" fill="none" stroke="#a15842" stroke-linecap="round" stroke-miterlimit="10" stroke-width="4"/>
    <line id="Line_69" data-name="Line 69" x2="3.165" y2="2.432" transform="translate(380.028 190.259)" fill="none" stroke="#30242a" stroke-linecap="round" stroke-linejoin="round" stroke-width="4"/>
    <line id="Line_70" data-name="Line 70" x2="8.521" y2="0.242" transform="translate(373.942 198.536)" fill="none" stroke="#30242a" stroke-linecap="round" stroke-linejoin="round" stroke-width="4"/>
    <path id="Path_221" data-name="Path 221" d="M912,486.45a3.651,3.651,0,0,1,3.651,3.651h0A3.654,3.654,0,0,1,912,493.766" transform="translate(-504.961 -230.95)" fill="none" stroke="#ff7235" stroke-miterlimit="10" stroke-width="4"/>
    <path id="Path_222" data-name="Path 222" d="M931.29,486.45a3.651,3.651,0,0,1,3.641,3.651h0a3.654,3.654,0,0,1-3.641,3.664" transform="translate(-519.129 -230.95)" fill="none" stroke="#ff7235" stroke-miterlimit="10" stroke-width="4"/>
    <rect id="Rectangle_27" data-name="Rectangle 27" width="46.497" height="6.331" rx="3.165" transform="translate(395.121 255.986)" fill="#30242a"/>
    <rect id="Rectangle_28" data-name="Rectangle 28" width="136.93" height="6.331" transform="translate(420.999 256.146) rotate(79.81)" fill="#30242a"/>
    <rect id="Rectangle_29" data-name="Rectangle 29" width="6.331" height="6.331" rx="3.165" transform="translate(395.121 255.986)" fill="none" stroke="#ff7235" stroke-miterlimit="10" stroke-width="4"/>
    <path id="Path_223" data-name="Path 223" d="M993.56,487.2a3.654,3.654,0,0,1,2.454,3.452h0A3.651,3.651,0,0,1,993.828,494" transform="translate(-564.863 -231.501)" fill="none" stroke="#ff7235" stroke-linecap="round" stroke-miterlimit="10" stroke-width="4"/>
    <path id="Path_224" data-name="Path 224" d="M1009.56,487.2a3.654,3.654,0,0,1,2.454,3.452h0a3.651,3.651,0,0,1-2.185,3.343" transform="translate(-576.615 -231.501)" fill="none" stroke="#ff7235" stroke-linecap="round" stroke-miterlimit="10" stroke-width="4"/>
    <rect id="Rectangle_30" data-name="Rectangle 30" width="88.853" height="6.331" transform="translate(353.251 391.825)" fill="#30242a"/>
    <circle id="Ellipse_37" data-name="Ellipse 37" cx="7.791" cy="7.791" r="7.791" transform="translate(350.935 390.362)" fill="#30242a"/>
    <circle id="Ellipse_38" data-name="Ellipse 38" cx="2.921" cy="2.921" r="2.921" transform="translate(355.805 395.232)" fill="#ffb7d5"/>
    <circle id="Ellipse_39" data-name="Ellipse 39" cx="7.791" cy="7.791" r="7.791" transform="translate(435.694 390.362)" fill="#30242a"/>
    <circle id="Ellipse_40" data-name="Ellipse 40" cx="2.921" cy="2.921" r="2.921" transform="translate(440.564 395.232)" fill="#ffb7d5"/>
    <path id="Path_225" data-name="Path 225" d="M708.572,989.992H684.23a12.172,12.172,0,1,1,24.344,0Z" transform="translate(-337.674 -591.84)" fill="#ff7235"/>
    <path id="Path_226" data-name="Path 226" d="M1027.752,989.992H1003.41a12.172,12.172,0,1,1,24.344,0Z" transform="translate(-572.098 -591.84)" fill="#ff7235"/>
    <path id="Path_227" data-name="Path 227" d="M749.579,611.011h22.768c.266-3.983,1.02-9.544,1.946-17.181,1.954-16.126,3.42-30.787,1.466-42.514s-19.193-52.046-19.193-52.046H724.1c-2.549,22,18.742,47.017,25.519,57.408,7.329,11.24,1.221,18.569-2.687,29.563s2.687,15.638,2.687,15.638A73.317,73.317,0,0,0,749.579,611.011Z" transform="translate(-366.8 -240.366)" fill="#4856df"/>
    <path id="Path_228" data-name="Path 228" d="M824.32,938.321h32.056c-2.265-5.311-9.212-7.937-11.511-10.03-1.415-1.285-1.745-3.792-1.458-8.232H820.64A62.978,62.978,0,0,0,824.32,938.321Z" transform="translate(-437.861 -549.418)" fill="#30242a"/>
    <path id="Path_229" data-name="Path 229" d="M835.743,991.751h31.52a8.912,8.912,0,0,0-.706-2.921H834.5A29.384,29.384,0,0,0,835.743,991.751Z" transform="translate(-448.041 -599.926)" fill="#3ec1f3"/>
    <line id="Line_71" data-name="Line 71" y2="7.993" transform="translate(391.632 362.368)" fill="none" stroke="#3ec1f3" stroke-linecap="round" stroke-miterlimit="10" stroke-width="4"/>
    <line id="Line_72" data-name="Line 72" y2="7.993" transform="translate(386.114 362.368)" fill="none" stroke="#3ec1f3" stroke-linecap="round" stroke-miterlimit="10" stroke-width="4"/>
    <line id="Line_73" data-name="Line 73" y2="7.993" transform="translate(397.15 362.368)" fill="none" stroke="#3ec1f3" stroke-linecap="round" stroke-miterlimit="10" stroke-width="4"/>
    <line id="Line_74" data-name="Line 74" y2="7.993" transform="translate(402.668 362.368)" fill="none" stroke="#3ec1f3" stroke-linecap="round" stroke-miterlimit="10" stroke-width="4"/>
    <line id="Line_75" data-name="Line 75" x2="23.368" transform="translate(382.875 362.124)" fill="none" stroke="#3ec1f3" stroke-linecap="round" stroke-miterlimit="10" stroke-width="4"/>
    <path id="Path_230" data-name="Path 230" d="M836.659,548.957c-.8-1.97-1.556-3.877-2.286-5.669l-11.949-2.1v.042a5.146,5.146,0,0,0,4.177,5.959Z" transform="translate(-439.113 -271.154)" fill="#3ec1f3"/>
    <line id="Line_76" data-name="Line 76" y1="1.545" x2="3.773" transform="translate(401.938 375.672)" fill="#f5ebdd" stroke="#fff" stroke-linecap="round" stroke-linejoin="round" stroke-width="4"/>
    <line id="Line_77" data-name="Line 77" y1="2.544" x2="3.152" transform="translate(403.887 378.327)" fill="#f5ebdd" stroke="#fff" stroke-linecap="round" stroke-linejoin="round" stroke-width="4"/>
    <path id="Path_231" data-name="Path 231" d="M1035.068,304.248s4.18.165,4.514-3.487c0,0,2.985-1.373,2.2-4.1a2.781,2.781,0,0,0,1.949-3.51,2.839,2.839,0,0,0,1.471-2.732c-.117-3.282-2.342-5.645-3.314-5.89-2.921-.73-1.811,4.015-1.949,3.9-1.7-1.461-4.188-2.124-5.074-1.381a2.351,2.351,0,0,0-.473,3.027,2.944,2.944,0,0,0-2.95.964c-1.179,1.737.929,3.356.929,3.356s-2.209.247-1.84,2.292c.409,2.286,3.842,2.8,5.47,5.191Z" transform="translate(-591.989 -82.591)" fill="#eaa58b"/>
    <path id="Path_232" data-name="Path 232" d="M1037.24,320.3c2.326.874,6.373,2.809,7.523,6" transform="translate(-596.944 -108.92)" fill="none" stroke="#a15842" stroke-linecap="round" stroke-linejoin="round" stroke-width="4"/>
    <path id="Path_233" data-name="Path 233" d="M1047.06,305c1.992,1.086,5.51,3.317,7.1,6.227" transform="translate(-604.157 -97.683)" fill="none" stroke="#a15842" stroke-linecap="round" stroke-linejoin="round" stroke-width="4"/>
    <path id="Path_234" data-name="Path 234" d="M1067.5,298a15.068,15.068,0,0,1,3.6,4.514" transform="translate(-619.169 -92.542)" fill="none" stroke="#a15842" stroke-linecap="round" stroke-linejoin="round" stroke-width="4"/>
    <path id="Path_235" data-name="Path 235" d="M676.682,320.51s8.726,13.142,6.331,25.806c-1.7,9.007-22.154,16.812-34.082,19.467V358.73s24.831-6.084,27.752-17.04c1.771-6.639-5.356-21.18-5.356-21.18" transform="translate(-311.747 -109.074)" fill="#f5ebdd"/>
    <path id="Path_236" data-name="Path 236" d="M780.074,437.322c-1.461-3.654-6.086-7.547-11.442-9.5-10.292-3.742-35.3,1.7-35.3,1.7l-3.747-8-18.437,9.028a45.628,45.628,0,0,0,9.1,12.547,9,9,0,0,1,15.932,4.514c10.194-.8,21.469-5.457,24.666-8.333a8.786,8.786,0,0,0,4.137,1.946c0,.73-3.407,10.468,2.679,8.277,0,0,1.7,2.191,4.137-.242a2.618,2.618,0,0,0,4.14.242s1.328.831,3.163-1.216C781.291,445.819,781.939,441.966,780.074,437.322Z" transform="translate(-357.445 -183.269)" fill="#eaa58b"/>
    <path id="Path_237" data-name="Path 237" d="M698.028,320.51h-.6c-4.942,0-13.033,3.654-12.058,13.118a65.244,65.244,0,0,0,6.785,22.715l18.437-9.028Z" transform="translate(-338.45 -109.074)" fill="#ffb7d5"/>
    <path id="Path_238" data-name="Path 238" d="M752.412,490.11a8.991,8.991,0,0,0-7,3.343,24.749,24.749,0,0,0,2.124,1.771c3.428,2.507,8.466,3.149,13.808,2.732a9,9,0,0,0-8.93-7.847Z" transform="translate(-382.608 -233.638)" fill="#ca7358"/>
    <path id="Path_239" data-name="Path 239" d="M924.77,494.087c1.062-2.124,3.473-7.632,1.731-11.307" transform="translate(-514.34 -228.254)" fill="none" stroke="#a15842" stroke-linecap="round" stroke-linejoin="round" stroke-width="4"/>
    <line id="Line_78" data-name="Line 78" y1="1.176" x2="5.738" transform="translate(369.56 245.802)" fill="none" stroke="#a15842" stroke-linecap="round" stroke-linejoin="round" stroke-width="4"/>
    <path id="Path_240" data-name="Path 240" d="M941,493.991c1.1-2.241,3.495-7.645,1.8-11.211" transform="translate(-526.26 -228.254)" fill="none" stroke="#a15842" stroke-linecap="round" stroke-linejoin="round" stroke-width="4"/>
    <path id="Path_241" data-name="Path 241" d="M957,494.257c1.062-2.14,3.423-7.823,1.694-11.477" transform="translate(-538.012 -228.254)" fill="none" stroke="#a15842" stroke-linecap="round" stroke-linejoin="round" stroke-width="4"/>
  </g>
</svg>
