<svg xmlns="http://www.w3.org/2000/svg" xmlns:xlink="http://www.w3.org/1999/xlink" width="295" height="226.308" viewBox="0 0 295 226.308">
  <defs>
    <clipPath id="clip-path">
      <ellipse id="Ellipse_72" data-name="Ellipse 72" cx="13.068" cy="11.35" rx="13.068" ry="11.35" transform="translate(0 13.068) rotate(-30)" fill="#30242a"/>
    </clipPath>
  </defs>
  <g id="Layer_4" data-name="Layer 4" transform="translate(-134.838 -148.83)">
    <path id="Path_458" data-name="Path 458" d="M891.624,181.933a10.424,10.424,0,0,1,10.424,10.424v98.864a10.424,10.424,0,0,1-10.424,10.424H763.357a10.424,10.424,0,0,1-10.424-10.424V192.357a10.424,10.424,0,0,1,10.424-10.424H891.624m0-.933H763.357A11.369,11.369,0,0,0,752,192.357v98.864a11.369,11.369,0,0,0,11.357,11.357H891.624a11.369,11.369,0,0,0,11.357-11.357V192.357A11.369,11.369,0,0,0,891.624,181Z" transform="translate(-473.143 -24.663)" fill="#fff"/>
    <rect id="Rectangle_57" data-name="Rectangle 57" width="149.115" height="119.712" rx="44.67" transform="translate(279.79 157.27)" fill="#f5ebdd"/>
    <line id="Line_157" data-name="Line 157" x2="149.581" transform="translate(279.79 179.673)" fill="none" stroke="#fff" stroke-miterlimit="10" stroke-width="4"/>
    <circle id="Ellipse_65" data-name="Ellipse 65" cx="3.967" cy="3.967" r="3.967" transform="translate(286.791 164.271)" fill="#fff"/>
    <circle id="Ellipse_66" data-name="Ellipse 66" cx="3.967" cy="3.967" r="3.967" transform="translate(298.814 164.271)" fill="#fff"/>
    <circle id="Ellipse_67" data-name="Ellipse 67" cx="3.967" cy="3.967" r="3.967" transform="translate(310.834 164.271)" fill="#fff"/>
    <path id="Path_459" data-name="Path 459" d="M328.624,483.933a10.424,10.424,0,0,1,10.424,10.424v98.864a10.424,10.424,0,0,1-10.424,10.424H200.357a10.424,10.424,0,0,1-10.424-10.424V494.357a10.424,10.424,0,0,1,10.424-10.424H328.624m0-.933H200.357A11.369,11.369,0,0,0,189,494.357v98.864a11.369,11.369,0,0,0,11.357,11.357H328.624a11.369,11.369,0,0,0,11.357-11.357V494.357A11.369,11.369,0,0,0,328.624,483Z" transform="translate(-41.523 -256.189)" fill="#fff"/>
    <rect id="Rectangle_58" data-name="Rectangle 58" width="149.115" height="119.712" rx="44.67" transform="translate(148.411 227.744)" fill="#f5ebdd"/>
    <line id="Line_158" data-name="Line 158" x2="149.581" transform="translate(148.411 250.146)" fill="none" stroke="#fff" stroke-miterlimit="10" stroke-width="4"/>
    <circle id="Ellipse_68" data-name="Ellipse 68" cx="3.967" cy="3.967" r="3.967" transform="translate(155.411 234.745)" fill="#fff"/>
    <circle id="Ellipse_69" data-name="Ellipse 69" cx="3.967" cy="3.967" r="3.967" transform="translate(167.434 234.745)" fill="#fff"/>
    <circle id="Ellipse_70" data-name="Ellipse 70" cx="3.967" cy="3.967" r="3.967" transform="translate(179.454 234.745)" fill="#fff"/>
    <path id="Path_460" data-name="Path 460" d="M582.949,457.39v-.376l.112-.084-.11-.023c0-2.007-.17-7.967-2.119-12.508-1.732-4.035-4.121-5.9-5.78-5.187s-1.956,3.734-.233,7.761a27.159,27.159,0,0,0,3.934,6.2c-2.938-2.784-6.949-6.235-10.571-8.135-4.9-2.567-8.711-2.49-9.768-.478s1.05,5.2,5.946,7.766a49.382,49.382,0,0,0,11.231,3.755,25.017,25.017,0,0,0-5.906.5c-4.284.961-6.553,2.971-6.158,4.73s3.3,2.607,7.589,1.645c4.772-1.071,9.649-4.364,11.327-5.575l.3.044c.121.114.194.177.194.177v-.149H583Z" transform="translate(-324.527 -222.506)" fill="#3ec1f3"/>
    <path id="Path_461" data-name="Path 461" d="M866.092,608.3l-.072-.07v.145Z" transform="translate(-560.556 -352.196)" fill="#3ec1f3"/>
    <path id="Path_462" data-name="Path 462" d="M823.309,577.138l-.058-11.245-5.741-5.682.114,22.668Z" transform="translate(-523.366 -315.382)" fill="#3ec1f3"/>
    <path id="Path_463" data-name="Path 463" d="M672.42,481.281l.191,37.825,5.741,5.682-.25-49.247Z" transform="translate(-412.134 -250.47)" fill="#3ec1f3"/>
    <path id="Path_464" data-name="Path 464" d="M591.79,537.48l13.427,13.292-.135-26.722Z" transform="translate(-350.319 -287.66)" fill="#3ec1f3"/>
    <path id="Path_465" data-name="Path 465" d="M774.913,551.641l-.17-33.767L769,512.19l.229,45.194Z" transform="translate(-486.176 -278.568)" fill="#3ec1f3"/>
    <path id="Path_466" data-name="Path 466" d="M726.241,469.862,720.5,464.18l.289,57.422,5.174,5.12.562-.567Z" transform="translate(-448.994 -241.761)" fill="#3ec1f3"/>
    <path id="Path_467" data-name="Path 467" d="M648.75,505.72l.135,26.722,5.58,5.524-.191-37.825Z" transform="translate(-393.987 -269.33)" fill="#4756df"/>
    <path id="Path_468" data-name="Path 468" d="M700.837,457.94l-4.067,4.107.25,49.247,5.577,5.524-.289-57.422Z" transform="translate(-430.801 -236.977)" fill="#4756df"/>
    <path id="Path_469" data-name="Path 469" d="M750.906,539.245l-.229-45.194L745.1,488.53l.285,56.293Z" transform="translate(-467.853 -260.429)" fill="#4756df"/>
    <path id="Path_470" data-name="Path 470" d="M799.3,564.739l-.114-22.668-5.577-5.521.17,33.767Z" transform="translate(-505.043 -297.243)" fill="#4756df"/>
    <path id="Path_471" data-name="Path 471" d="M847.69,590.228v-.145l-5.58-5.523.058,11.245Z" transform="translate(-542.225 -334.05)" fill="#4756df"/>
    <line id="Line_159" data-name="Line 159" x1="28.514" y2="28.803" transform="translate(250.378 229.849)" fill="none" stroke="#000" stroke-linejoin="round" stroke-width="4"/>
    <rect id="Rectangle_59" data-name="Rectangle 59" width="44.807" height="12.048" transform="translate(239.991 251.313) rotate(-45.29)" fill="#4756df"/>
    <path id="Path_472" data-name="Path 472" d="M328.453,621.195s3.034-10.034,1.167-11.668c-2.254-1.972-6.067,4.434-9.141,12.135-3.232,8.09-12.6,31.036-13.068,32.67,0,0-15.964-8.728-23.1-11.9a59.094,59.094,0,0,0-13.976-3.818l-.975-5.86s4.557,1.633,8.464-.651,4.884-6.513,3.582-13.024c-.772-3.857-.744-8.634-1.4-12.893a20.285,20.285,0,0,1-6.408-.455c-5.211,5.86-10.734,7.162-10.734,7.162-3.582-3.906-10.1-3.906-11.07,1.634-1.08,6.126,6.511,7.813,6.511,7.813A38.352,38.352,0,0,1,256.58,640.1c-4.539,12.321-22.836,15.591-30.336,10.268-13.535,9.568-1.561,38.637,9.8,52.272,9.334,11.2,42.471,5.367,42.471,5.367a23.593,23.593,0,0,0,8.167,3.734c7.934,15.635,11.2,11.2,11.2,11.2s2.8,3.034,4.9-.233c4.2.233,3.967-2.333.233-11.2,4.2,5.134,8.312,5.15,8.4,3.734.233-3.734-12.135-16.8-19.835-20.069a84.539,84.539,0,0,0-8.634-3.267L281.782,673s24.764,13.6,36.4,7.234c14.935-8.167,21-48.3,21-48.3Z" transform="translate(-65.465 -350.28)" fill="#eaa58b"/>
    <path id="Path_473" data-name="Path 473" d="M257.025,598.983a38.257,38.257,0,0,0,1.708-17.763s-7.591-1.687-6.511-7.813c.975-5.535,7.488-5.535,11.07-1.633,0,0,5.533-1.3,10.734-7.162a20.284,20.284,0,0,0,6.408.455,16.006,16.006,0,0,0-2.828-7.619c-3.906-4.882-14.65-8.139-23.114-1.953S246.678,571.773,247,575.68c0,0-14.638-3.584-22.426,7.43-9.568,13.535,2.1,26.136,2.1,26.136C234.189,614.573,252.486,611.3,257.025,598.983Z" transform="translate(-65.91 -309.166)" fill="#30242a"/>
    <path id="Path_474" data-name="Path 474" d="M344.726,789.281l-.408-6.62h.021l-1.953-32.24a63.55,63.55,0,0,0-6.557-1.65l-1.078,22.223h-18.2l-6.914-11.236A26.4,26.4,0,0,1,301.8,762.2l10.4,25.772,3.883,9.624s8.868.467,16.8,1.633,12.6,2.334,12.6,2.334Z" transform="translate(-128 -459.94)" fill="#ff7235"/>
    <path id="Path_475" data-name="Path 475" d="M683.581,674.48c-.191.609-.387,1.2-.581,1.755a15.736,15.736,0,0,1,2.217,15.752" transform="translate(-420.245 -402.986)" fill="none" stroke="#bb7259" stroke-linecap="round" stroke-miterlimit="10" stroke-width="4"/>
    <line id="Line_160" data-name="Line 160" x1="2.448" y2="6.275" transform="translate(238.953 303.844)" fill="none" stroke="#bb7259" stroke-linecap="round" stroke-miterlimit="10" stroke-width="4"/>
    <path id="Path_476" data-name="Path 476" d="M568.206,1041.427c-.987-2.238-2.208-4.856-3.286-6.767" transform="translate(-329.719 -679.116)" fill="none" stroke="#bb7259" stroke-linecap="round" stroke-miterlimit="10" stroke-width="4"/>
    <path id="Path_477" data-name="Path 477" d="M546.15,1044.63a93.574,93.574,0,0,1,6.373,14.33" transform="translate(-315.329 -686.759)" fill="none" stroke="#bb7259" stroke-linecap="round" stroke-miterlimit="10" stroke-width="4"/>
    <path id="Path_478" data-name="Path 478" d="M527.49,1056.47c2.1,3.855,4.144,8.347,5.661,11.878" transform="translate(-301.024 -695.837)" fill="none" stroke="#bb7259" stroke-linecap="round" stroke-miterlimit="10" stroke-width="4"/>
    <line id="Line_161" data-name="Line 161" x1="31.036" y1="0.233" transform="translate(186.098 331.938)" fill="none" stroke="#724342" stroke-linecap="round" stroke-miterlimit="10" stroke-width="4"/>
    <path id="Path_479" data-name="Path 479" d="M284.741,996.039a9.236,9.236,0,0,0-8.961,1.717c.945,1.337,1.9,2.59,2.852,3.734,2.581,3.1,6.98,4.9,11.995,5.864A9.358,9.358,0,0,0,284.741,996.039Z" transform="translate(-108.052 -649.132)" fill="#ca7358"/>
    <path id="Path_480" data-name="Path 480" d="M602.57,895.5a19.317,19.317,0,0,0,5.6-4.915,9.1,9.1,0,0,0-4.623-3.568,9.375,9.375,0,0,0-11.848,5.941,9.638,9.638,0,0,0-.483,4.016C595.452,897.478,599.475,897.2,602.57,895.5Z" transform="translate(-349.849 -565.55)" fill="#ca7358"/>
    <path id="Path_481" data-name="Path 481" d="M239.262,799.175c-5.026.749-9.936.014-13.019-2.175-9.836,6.954-6.2,24.2.882,38.347l22.538-10.4Z" transform="translate(-65.465 -496.915)" fill="#ffbe21"/>
    <path id="Path_482" data-name="Path 482" d="M344.851,739.2a18.562,18.562,0,0,1-9.481,10l6.914,11.236h18.2l1.078-22.211c-1.792-.352-2.959-.509-2.959-.509L358.153,735H346.069A31.766,31.766,0,0,1,344.851,739.2Z" transform="translate(-153.736 -449.384)" fill="#ffbe21"/>
    <path id="Path_483" data-name="Path 483" d="M480.177,757.549a42.284,42.284,0,0,0-4.457-1.659l1.953,32.24a96.766,96.766,0,0,0,9.547,4.408l9.568-26.589C491.542,763.15,484.352,759.416,480.177,757.549Z" transform="translate(-261.335 -465.399)" fill="#ffbe21"/>
    <ellipse id="Ellipse_71" data-name="Ellipse 71" cx="13.068" cy="11.35" rx="13.068" ry="11.35" transform="translate(134.838 298.874) rotate(-30)" fill="#30242a"/>
    <g id="Group_2" data-name="Group 2" transform="translate(134.838 285.806)" clip-path="url(#clip-path)">
      <path id="Path_484" data-name="Path 484" d="M221.5,751.5s1.633,9.8,9.568,12.835" transform="translate(-201.277 -747.839)" fill="none" stroke="#000" stroke-linecap="round" stroke-linejoin="round" stroke-width="4"/>
    </g>
    <line id="Line_162" data-name="Line 162" x2="0.933" y2="7.001" transform="translate(331.479 231.828)" fill="none" stroke="#f5ebdc" stroke-linecap="round" stroke-miterlimit="10" stroke-width="4"/>
    <path id="Path_485" data-name="Path 485" d="M972.5,301.2s10.5-12.368-1.167-22.869a19.235,19.235,0,0,0-15.7-4.63c.324-3.906.975-14-7.488-20.185s-19.21-2.929-23.116,1.953-2.929,14-4.231,20.512-.327,10.734,3.58,13.024,8.466.651,8.466.651l-.978,5.86a59.089,59.089,0,0,0-13.973,3.818c-7.141,3.174-23.1,11.9-23.1,11.9-.467-1.633-3.034-28.236-4.2-36.87-.889-6.578-3.967-14.7-6.3-13.068-2.264,1.585-1.4,6.767-1.4,6.767l-11.9,12.368s-5.883,42.408,8.167,53.905c10.268,8.4,37.1-5.134,37.1-5.134l-3.5,25.436h32.021s-6,1.6-18.487,7.234c-14.468,6.534-22.869,24.736-21.935,26.136s3.734.233,7.467-4.434c-3.267,12.135,0,11.2,2.1,10.968,2.135,3.071,4.9-.7,4.9-.7s3.734,3.5,9.568-12.835a28.333,28.333,0,0,0,7.234-4.9s37.1-2.334,44.338-15.4S982.3,313.57,972.5,301.2Z" transform="translate(-563.426 -77.658)" fill="#a15842"/>
    <circle id="Ellipse_73" data-name="Ellipse 73" cx="0.968" cy="0.968" r="0.968" transform="translate(359.598 193.441)" fill="#30242a"/>
    <line id="Line_163" data-name="Line 163" x1="5.367" y1="0.233" transform="translate(182.597 337.071)" fill="none" stroke="#bb7259" stroke-linecap="round" stroke-miterlimit="10" stroke-width="4"/>
    <path id="Path_486" data-name="Path 486" d="M416.971,717.99a27.331,27.331,0,0,1-4.091-1.79" transform="translate(-213.159 -434.971)" fill="none" stroke="#bb7259" stroke-linecap="round" stroke-miterlimit="10" stroke-width="4"/>
    <path id="Path_487" data-name="Path 487" d="M331.54,652.87c.177,1.781.418,4,.651,5.748" transform="translate(-150.8 -386.419)" fill="none" stroke="#000" stroke-linecap="round" stroke-linejoin="round" stroke-width="4"/>
    <path id="Path_488" data-name="Path 488" d="M413.761,904.73s-5.407-7.652-2.9-8.658C412.893,895.261,413.471,901.214,413.761,904.73Z" transform="translate(-211.104 -572.811)" fill="none" stroke="#724342" stroke-linecap="round" stroke-linejoin="round" stroke-width="4"/>
    <path id="Path_489" data-name="Path 489" d="M426.19,916.715s2.658-6.137,4.326-5.155C431.863,912.354,428.311,915.112,426.19,916.715Z" transform="translate(-223.363 -584.661)" fill="none" stroke="#724342" stroke-linecap="round" stroke-linejoin="round" stroke-width="4"/>
    <line id="Line_164" data-name="Line 164" x2="0.415" y2="2.488" transform="translate(205.401 288.496)" fill="none" stroke="#bb7259" stroke-linecap="round" stroke-miterlimit="10" stroke-width="4"/>
    <line id="Line_165" data-name="Line 165" x1="2.905" y1="1.615" transform="translate(190.879 265.205)" fill="none" stroke="#bb7259" stroke-linecap="round" stroke-miterlimit="10" stroke-width="4"/>
    <path id="Path_490" data-name="Path 490" d="M446.87,677.85c.166,3.062,3.311,3.316,4.081,1.167Z" transform="translate(-239.217 -405.57)" fill="none" stroke="#bb7259" stroke-linecap="round" stroke-linejoin="round" stroke-width="4"/>
    <circle id="Ellipse_74" data-name="Ellipse 74" cx="0.968" cy="0.968" r="0.968" transform="translate(204.806 264.964)" fill="#724342"/>
    <circle id="Ellipse_75" data-name="Ellipse 75" cx="0.968" cy="0.968" r="0.968" transform="translate(212.007 263.214)" fill="#724342"/>
    <path id="Path_491" data-name="Path 491" d="M458.454,655.72a3.984,3.984,0,0,1,.383,1.552,1.414,1.414,0,0,1-.567.744" transform="translate(-247.957 -388.604)" fill="none" stroke="#bb7259" stroke-linecap="round" stroke-miterlimit="10" stroke-width="4"/>
    <path id="Path_492" data-name="Path 492" d="M365.815,544.72l1.234,1.356.817.9h0c.52,1.82-3.267,4.721-8.532,6.518s-10.034,1.813-10.734.054h0l.1-1.214.149-1.827c1.977.467,5.407.091,9.078-1.167S364.541,546.307,365.815,544.72Z" transform="translate(-163.879 -303.507)" fill="#ffb7d5"/>
    <path id="Path_493" data-name="Path 493" d="M357.291,535.532a22.61,22.61,0,0,0,6.641-3.412l2.672,2.94c-1.274,1.587-4.224,3.374-7.9,4.627s-7.1,1.633-9.078,1.167l.32-3.967A22.747,22.747,0,0,0,357.291,535.532Z" transform="translate(-164.669 -293.847)" fill="#ff7235"/>
    <path id="Path_494" data-name="Path 494" d="M362.122,518.64l2.861,3.146A25.694,25.694,0,0,1,351,526.555l.341-4.24a27.536,27.536,0,0,0,10.781-3.675Z" transform="translate(-165.719 -283.512)" fill="#ffb7d5"/>
    <path id="Path_495" data-name="Path 495" d="M356.625,506.114a27.794,27.794,0,0,0,3.633-1.524l2.982,3.279a27.537,27.537,0,0,1-10.781,3.675l.359-4.415A28.128,28.128,0,0,0,356.625,506.114Z" transform="translate(-166.838 -272.741)" fill="#ff7235"/>
    <path id="Path_496" data-name="Path 496" d="M354,483.118l.8-9.848,6.646,7.309a27.8,27.8,0,0,1-3.633,1.524A28.123,28.123,0,0,1,354,483.118Z" transform="translate(-168.019 -248.73)" fill="#ffb7d5"/>
    <circle id="Ellipse_76" data-name="Ellipse 76" cx="3.594" cy="3.594" r="3.594" transform="translate(182.621 219.304)" fill="#ff7235"/>
    <circle id="Ellipse_77" data-name="Ellipse 77" cx="2.917" cy="2.917" r="2.917" transform="translate(189.015 270.215)" fill="#f4e6d8"/>
    <path id="Path_497" data-name="Path 497" d="M938.825,515.293l.6,1.342,3.594,8.053c11.061-1.367,32.266-5.185,37.547-14.727,7.234-13.068,2.334-47.138-7.467-59.506h0c-8.167,8.982-20.8,6.534-25.861-.933a17.833,17.833,0,0,1-2.842.467,17.072,17.072,0,0,1-4.48-.177,11.49,11.49,0,0,1-4.9-2.065,8.37,8.37,0,0,1-2.52-2.891l-.313-.044a58.494,58.494,0,0,0-13.689,3.778c-7.141,3.174-23.1,11.9-23.1,11.9-.21-.733-.842-6.5-1.582-13.418l-9.064,3.5-.982.38-4.688,1.816-8.524,3.3c.611,10.986,2.905,22.367,9.206,27.524,10.268,8.4,37.1-5.134,37.1-5.134l-3.5,25.436H945.38a97.658,97.658,0,0,0-10.034,3.605l1.554,3.479Z" transform="translate(-564.029 -226.911)" fill="#ffb7d5"/>
    <path id="Path_498" data-name="Path 498" d="M938.734,567A10.734,10.734,0,0,0,928,577.734a10.89,10.89,0,0,0,.128,1.665c6.119,1.635,14.529-.283,21.3-2.566A10.734,10.734,0,0,0,938.734,567Z" transform="translate(-608.072 -320.587)" fill="#ff7235"/>
    <path id="Path_499" data-name="Path 499" d="M884.19,474.156a10.762,10.762,0,0,0-.427-3l-4.688,1.816-8.525,3.3c.156,2.817.425,5.659.842,8.415a10.734,10.734,0,0,0,12.8-10.534Z" transform="translate(-564.029 -247.112)" fill="#ff7235"/>
    <path id="Path_500" data-name="Path 500" d="M1029.862,466.391a10.734,10.734,0,0,0,9.8-15.1,45.847,45.847,0,0,0-6.534,2.266c-3.286,1.461-8.441,4.1-13.049,6.52A10.734,10.734,0,0,0,1029.862,466.391Z" transform="translate(-678.665 -231.879)" fill="#ff7235"/>
    <circle id="Ellipse_78" data-name="Ellipse 78" cx="10.734" cy="10.734" r="10.734" transform="translate(366.599 237.545)" fill="#ff7235"/>
    <path id="Path_501" data-name="Path 501" d="M1061,648a10.686,10.686,0,0,0-5.6,1.585l-1.4,10.083h17.691c.028-.308.044-.618.044-.933A10.734,10.734,0,0,0,1061,648Z" transform="translate(-704.669 -382.686)" fill="#ff7235"/>
    <path id="Path_502" data-name="Path 502" d="M1249.019,474.689c0,.2-.019.406-.019.611a10.734,10.734,0,0,0,20.136,5.176,40.958,40.958,0,0,0-5.9-11.477h0A16.81,16.81,0,0,1,1249.019,474.689Z" transform="translate(-854.165 -245.456)" fill="#ff7235"/>
    <path id="Path_503" data-name="Path 503" d="M1292,652.718a10.734,10.734,0,0,0,10,10.706,12.322,12.322,0,0,0,1.671-2.306c2.38-4.3,3.447-10.872,3.456-18.2a10.734,10.734,0,0,0-15.124,9.8Z" transform="translate(-887.131 -378.069)" fill="#ff7235"/>
    <path id="Path_504" data-name="Path 504" d="M1170.567,734a10.694,10.694,0,0,0-7.437,3l.6,1.342,3.594,8.053a140.355,140.355,0,0,0,13.948-2.413A10.734,10.734,0,0,0,1170.567,734Z" transform="translate(-788.333 -448.617)" fill="#ff7235"/>
    <path id="Path_505" data-name="Path 505" d="M1206.952,669.5c-6.273,2.138-14.732,4.737-19.952,6.417" transform="translate(-806.633 -399.168)" fill="none" stroke="#f5ebdc" stroke-linecap="round" stroke-miterlimit="10" stroke-width="4"/>
    <line id="Line_166" data-name="Line 166" x2="2.215" y2="24.082" transform="translate(393.671 247.649)" fill="none" stroke="#f5ebdc" stroke-linecap="round" stroke-miterlimit="10" stroke-width="4"/>
    <path id="Path_506" data-name="Path 506" d="M1047.31,790.7a109.552,109.552,0,0,1,3.829-10.326" transform="translate(-699.541 -484.166)" fill="none" stroke="#30242a" stroke-linecap="round" stroke-miterlimit="10" stroke-width="4"/>
    <path id="Path_507" data-name="Path 507" d="M1063.969,788.74a92.479,92.479,0,0,0-5.869,18.29" transform="translate(-707.813 -490.583)" fill="none" stroke="#30242a" stroke-linecap="round" stroke-miterlimit="10" stroke-width="4"/>
    <path id="Path_508" data-name="Path 508" d="M1086.45,798.5a113.228,113.228,0,0,0-4.97,15.528" transform="translate(-725.737 -498.065)" fill="none" stroke="#30242a" stroke-linecap="round" stroke-miterlimit="10" stroke-width="4"/>
    <line id="Line_167" data-name="Line 167" x1="1.269" y2="8.471" transform="translate(352.315 243.251)" fill="none" stroke="#f5ebdc" stroke-linecap="round" stroke-miterlimit="10" stroke-width="4"/>
    <path id="Path_509" data-name="Path 509" d="M1143.591,278.333a19.235,19.235,0,0,0-15.7-4.63c.324-3.906.975-14-7.488-20.185s-19.21-2.929-23.116,1.953a16.029,16.029,0,0,0-2.828,7.619,20.3,20.3,0,0,0,6.41-.455c5.208,5.86,10.734,7.162,10.734,7.162,3.582-3.906,10.093-3.906,11.07,1.633,1.08,6.126-6.513,7.813-6.513,7.813a41.769,41.769,0,0,0,1.05,17.53,12.891,12.891,0,0,0,1.676,3.5c5.064,7.467,17.7,9.918,25.86.933a16.5,16.5,0,0,0,1.123-1.559C1148.235,296,1152.764,286.589,1143.591,278.333Z" transform="translate(-735.688 -77.658)" fill="#30242a"/>
    <path id="Path_510" data-name="Path 510" d="M1139.92,415.32a20.927,20.927,0,0,0,4.336-1.82" transform="translate(-770.54 -202.908)" fill="none" stroke="#30242a" stroke-linecap="round" stroke-miterlimit="10" stroke-width="4"/>
    <path id="Path_511" data-name="Path 511" d="M1237.149,350.87c-.177,1.78-.415,4-.649,5.748" transform="translate(-844.582 -154.893)" fill="none" stroke="#000" stroke-linecap="round" stroke-miterlimit="10" stroke-width="4"/>
    <line id="Line_168" data-name="Line 168" y1="1.615" x2="2.905" transform="translate(379.522 194.731)" fill="none" stroke="#30242a" stroke-linecap="round" stroke-miterlimit="10" stroke-width="4"/>
    <path id="Path_512" data-name="Path 512" d="M1112.62,381.805a2.61,2.61,0,0,0,3.346-.945" transform="translate(-749.61 -177.884)" fill="none" stroke="#30242a" stroke-linecap="round" stroke-miterlimit="10" stroke-width="4"/>
    <circle id="Ellipse_79" data-name="Ellipse 79" cx="0.968" cy="0.968" r="0.968" transform="translate(367.301 194.724)" fill="#30242a"/>
    <path id="Path_513" data-name="Path 513" d="M1111.426,359.76a3.967,3.967,0,0,0-.17,1.587,1.417,1.417,0,0,0,.663.663" transform="translate(-748.536 -161.708)" fill="none" stroke="#30242a" stroke-linecap="round" stroke-miterlimit="10" stroke-width="4"/>
    <ellipse id="Ellipse_80" data-name="Ellipse 80" cx="4.667" cy="4.2" rx="4.667" ry="4.2" transform="translate(353.268 197.965) rotate(-76.95)" fill="none" stroke="#000" stroke-linecap="round" stroke-miterlimit="10" stroke-width="4"/>
    <ellipse id="Ellipse_81" data-name="Ellipse 81" cx="4.667" cy="4.2" rx="4.667" ry="4.2" transform="translate(363.537 199.597) rotate(-76.95)" fill="none" stroke="#000" stroke-linecap="round" stroke-miterlimit="10" stroke-width="4"/>
    <line id="Line_169" data-name="Line 169" x2="1.633" y2="0.233" transform="translate(362.749 194.958)" fill="none" stroke="#000" stroke-linecap="round" stroke-miterlimit="10" stroke-width="4"/>
    <path id="Path_514" data-name="Path 514" d="M913.5,332.5s4.434,3.734,4.9,4.667c0,0-7.234,7.467-1.633,16.568" transform="translate(-596.956 -140.809)" fill="none" stroke="#30242a" stroke-linecap="round" stroke-miterlimit="10" stroke-width="4"/>
    <rect id="Rectangle_60" data-name="Rectangle 60" width="3.72" height="71.455" rx="1.86" transform="matrix(0.853, 0.522, -0.522, 0.853, 338.103, 163.988)" fill="#30242a"/>
    <path id="Path_515" data-name="Path 515" d="M987.009,152.521l4.018-3.216a2.054,2.054,0,0,1,3.3,1.988l-.964,5.061a2.054,2.054,0,0,0,.889,2.1l4.3,2.828a2.054,2.054,0,0,1-.87,3.755l-5.094.651a2.056,2.056,0,0,0-1.724,1.5l-1.36,4.961a2.056,2.056,0,0,1-3.841.331l-2.191-4.667a2.054,2.054,0,0,0-1.956-1.167l-5.134.233a2.054,2.054,0,0,1-1.529-3.552l3.75-3.524a2.056,2.056,0,0,0,.516-2.224l-1.816-4.814a2.056,2.056,0,0,1,2.917-2.527l4.511,2.481a2.058,2.058,0,0,0,2.278-.2Z" transform="translate(-643.491 -0.018)" fill="#3ec1f3"/>
    <path id="Path_516" data-name="Path 516" d="M872.751,321.2c-1.633-1.4-4.772-2.308-6.3-1.4a4.363,4.363,0,0,0-1.946,4.511s-4.2-.653-4.149,3.65c0,0-3.381,1.479-1.9,4.861,0,0-2.926.74-1.535,4.343a10.371,10.371,0,0,0,5.332,5.272c1.4.7,3.547-.31,2.8-3.034a2.9,2.9,0,0,0,2.567-.467c1.288-1.288.7-3.734.7-3.734a3.42,3.42,0,0,0,2.8-.467c1.423-1.139.7-3.267.7-3.267a2.9,2.9,0,0,0,2.333-1.867c.933-2.334-2.567-5.134-2.567-5.134Z" transform="translate(-553.29 -130.795)" fill="#a15842"/>
    <path id="Path_517" data-name="Path 517" d="M864,377.37a56.592,56.592,0,0,0,6.767,6.914" transform="translate(-559.007 -175.209)" fill="none" stroke="#30242a" stroke-linecap="round" stroke-miterlimit="10" stroke-width="4"/>
    <path id="Path_518" data-name="Path 518" d="M873,355.88a48.138,48.138,0,0,0,8.182,7.885" transform="translate(-565.907 -158.734)" fill="none" stroke="#30242a" stroke-linecap="round" stroke-miterlimit="10" stroke-width="4"/>
    <path id="Path_519" data-name="Path 519" d="M889,341.17a34.175,34.175,0,0,0,7.862,7.484" transform="translate(-578.173 -147.456)" fill="none" stroke="#30242a" stroke-linecap="round" stroke-miterlimit="10" stroke-width="4"/>
    <path id="Path_520" data-name="Path 520" d="M913.5,332.5s2.187,1.841,3.65,3.267" transform="translate(-596.956 -140.809)" fill="none" stroke="#30242a" stroke-linecap="round" stroke-miterlimit="10" stroke-width="4"/>
    <path id="Path_521" data-name="Path 521" d="M1141.554,242.72l-1.232,1.356-.819.9h0c-.52,1.82,3.267,4.721,8.534,6.518s10.034,1.813,10.734.054h0l-.1-1.213-.147-1.827c-1.979.467-5.407.091-9.08-1.167S1142.831,244.307,1141.554,242.72Z" transform="translate(-770.183 -71.98)" fill="#ffbe21"/>
    <path id="Path_522" data-name="Path 522" d="M1157.766,233.532a22.609,22.609,0,0,1-6.641-3.412l-2.674,2.94c1.276,1.587,4.226,3.374,7.9,4.627s7.1,1.633,9.08,1.167l-.32-3.967A22.747,22.747,0,0,1,1157.766,233.532Z" transform="translate(-777.079 -62.32)" fill="#ff7235"/>
    <path id="Path_523" data-name="Path 523" d="M1162.771,216.64l-2.861,3.146a25.693,25.693,0,0,0,13.983,4.77l-.343-4.24a27.52,27.52,0,0,1-10.779-3.675Z" transform="translate(-785.865 -51.986)" fill="#ffbe21"/>
    <path id="Path_524" data-name="Path 524" d="M1178.786,204.114a27.831,27.831,0,0,1-3.636-1.524l-2.98,3.267a27.52,27.52,0,0,0,10.779,3.675l-.357-4.415A28.187,28.187,0,0,1,1178.786,204.114Z" transform="translate(-795.264 -41.215)" fill="#ff7235"/>
    <path id="Path_525" data-name="Path 525" d="M1192.382,181.118l-.8-9.848-6.646,7.309a27.823,27.823,0,0,0,3.636,1.524,28.186,28.186,0,0,0,3.806,1.015Z" transform="translate(-805.054 -17.203)" fill="#ffbe21"/>
    <circle id="Ellipse_82" data-name="Ellipse 82" cx="3.594" cy="3.594" r="3.594" transform="translate(383.499 148.83)" fill="#ff7235"/>
  </g>
</svg>
